<svg width="118" height="26" viewBox="0 0 118 26" fill="none" xmlns="http://www.w3.org/2000/svg">
<g clip-path="url(#clip0_2_231)">
<path d="M8.75984 14.1624L15.7058 25.1308C15.7879 25.2563 15.9008 25.3582 16.0336 25.4266C16.1664 25.4949 16.3145 25.5274 16.4635 25.5208H19.0368C19.1528 25.5222 19.268 25.5002 19.3756 25.4561C19.4832 25.412 19.5809 25.3467 19.6631 25.264C19.7453 25.1813 19.8103 25.083 19.8543 24.9747C19.8983 24.8663 19.9204 24.7503 19.9193 24.6332V1.40444C19.9176 1.21918 19.859 1.03902 19.7516 0.888656C19.6443 0.738291 19.4933 0.625087 19.3197 0.56457C19.1459 0.504053 18.9579 0.499186 18.7814 0.550638C18.6048 0.602089 18.4483 0.707338 18.3334 0.851952L8.75984 13.096C8.65611 13.2542 8.6008 13.4396 8.6008 13.6292C8.6008 13.8188 8.65611 14.0042 8.75984 14.1624Z" fill="white"/>
<path d="M0.951406 25.517H5.53369C5.6498 25.5184 5.76501 25.4963 5.87257 25.4523C5.98013 25.4082 6.07787 25.3428 6.16007 25.2602C6.24227 25.1775 6.30728 25.0792 6.35125 24.9708C6.39527 24.8625 6.4174 24.7465 6.41629 24.6294V18.7389C6.4135 18.5539 6.3541 18.3743 6.24635 18.2245C6.13858 18.0747 5.98762 17.962 5.81404 17.9019C5.64045 17.8417 5.45268 17.8369 5.27631 17.8882C5.09994 17.9395 4.94354 18.0443 4.82842 18.1885L0.246128 24.079C0.148317 24.2122 0.0888441 24.3701 0.0742426 24.5352C0.0596412 24.7003 0.0904765 24.8663 0.163361 25.015C0.236245 25.1636 0.348358 25.289 0.487382 25.3777C0.626405 25.4662 0.786959 25.5145 0.951406 25.517Z" fill="white"/>
<path d="M82.7957 12.2732C82.7436 12.2086 82.686 12.1482 82.6246 12.0925L82.5297 12.0112L82.4814 11.9685C82.2631 11.7833 82.0256 11.6213 81.7739 11.4851C81.5011 11.3202 81.2121 11.1841 80.912 11.0788C80.6045 10.9682 80.2883 10.8839 79.9665 10.827C79.1362 10.6782 78.2831 10.7219 77.4721 10.955C76.9872 11.0932 76.5215 11.2917 76.0856 11.546C75.6572 11.799 75.2622 12.1062 74.9107 12.4601C74.5603 12.8171 74.2516 13.213 73.9899 13.6402C73.7239 14.0705 73.5205 14.537 73.3854 15.0255C73.0995 16.0358 73.0995 17.1067 73.3854 18.117C73.5236 18.6036 73.727 19.069 73.9899 19.5002C74.2516 19.9275 74.5603 20.3233 74.9107 20.6803C75.2641 21.0346 75.6597 21.3425 76.0894 21.5964C76.5265 21.8435 76.9897 22.0411 77.4702 22.1855C78.3017 22.4356 79.1809 22.4796 80.0334 22.3134C80.3608 22.2588 80.6814 22.1668 80.9883 22.0392C81.2828 21.9181 81.5674 21.7748 81.8409 21.6107C82.1118 21.4476 82.3735 21.2679 82.6227 21.0723C82.694 21.0093 82.7616 20.9415 82.8242 20.8693L82.8565 20.8327C82.916 20.7609 82.9613 20.6781 82.9892 20.589L83.0016 20.5158C83.0078 20.3988 82.9805 20.2825 82.9228 20.1806L82.8943 20.136C82.8726 20.1 82.8478 20.066 82.8199 20.0344L82.7455 19.9328C82.5961 19.7297 82.4553 19.5266 82.304 19.3398C82.2402 19.2656 82.1602 19.2072 82.0703 19.1692C81.981 19.1387 81.8836 19.1387 81.7944 19.1692C81.666 19.2268 81.5494 19.3073 81.4496 19.4068L81.3169 19.5205C81.1855 19.6302 81.1154 19.7013 80.9319 19.8313C80.7669 19.9581 80.5884 20.0664 80.3999 20.1543C80.1965 20.2587 79.9807 20.3352 79.7569 20.3818C79.0215 20.5423 78.2552 20.4611 77.5688 20.1502C77.1273 19.9499 76.7268 19.6697 76.3857 19.3235C76.036 18.9696 75.7564 18.5518 75.5617 18.0926C75.3546 17.6265 75.2473 17.1216 75.2473 16.6108C75.2473 16.1001 75.3546 15.5952 75.5617 15.1291C75.7583 14.6675 76.0367 14.2462 76.3839 13.886C76.7292 13.5376 77.1304 13.2505 77.5706 13.037C78.208 12.732 78.9273 12.6464 79.618 12.7932C79.8493 12.8466 80.0756 12.9186 80.2951 13.0085C80.5047 13.0981 80.7068 13.204 80.8996 13.3254C81.3027 13.565 81.7578 14.2516 82.1992 13.7072L82.8379 12.842C82.8683 12.8005 82.8893 12.7534 82.9005 12.7035C82.9123 12.6537 82.9135 12.6019 82.9048 12.5515C82.8937 12.4507 82.8559 12.3546 82.7957 12.2732Z" fill="white"/>
<path d="M43.5018 21.481L36.5135 5.45278C36.4666 5.33376 36.3856 5.23154 36.2808 5.15918C36.1759 5.08682 36.0521 5.0476 35.9251 5.04654H34.8047C34.6794 5.04604 34.5568 5.08303 34.4525 5.15281C34.3481 5.2226 34.2666 5.32205 34.2183 5.43856L27.2159 21.4627C27.1678 21.5607 27.1462 21.6698 27.1532 21.7789C27.1603 21.8881 27.1958 21.9934 27.2562 22.0842C27.3133 22.1771 27.3932 22.2535 27.4882 22.3061C27.5831 22.3588 27.6899 22.3859 27.7983 22.3849H28.832C28.958 22.3874 29.0817 22.3513 29.1868 22.2813C29.2919 22.2112 29.3734 22.1106 29.4204 21.9928L31.101 18.0381H39.5945L41.265 21.9928C41.312 22.1122 41.3934 22.2146 41.4986 22.287C41.6038 22.3594 41.7281 22.3984 41.8554 22.3991H42.863C42.9675 22.4057 43.0719 22.3861 43.167 22.3417C43.262 22.2974 43.3445 22.2298 43.4071 22.1452C43.4807 22.0533 43.5284 21.9431 43.545 21.8262C43.5617 21.7093 43.5468 21.59 43.5018 21.481ZM31.9957 15.9967L32.0239 15.9337L35.3911 8.03444L38.7684 15.9967H31.9957Z" fill="white"/>
<path d="M107.486 14.782C107.313 14.1617 107.041 13.5739 106.68 13.0412C106.415 12.6828 106.109 12.3563 105.769 12.0683C105.448 11.7794 105.082 11.5436 104.687 11.3695C104.302 11.1755 103.897 11.0243 103.478 10.9186C102.545 10.6867 101.566 10.7057 100.641 10.9735C100.167 11.1064 99.7123 11.3046 99.2913 11.5625C98.8746 11.824 98.4902 12.1334 98.1448 12.4847C97.8057 12.8356 97.5173 13.2337 97.2904 13.6668C97.0486 14.1078 96.8638 14.5782 96.7404 15.0663C96.5247 15.8436 96.4819 16.6592 96.6152 17.455C96.6499 17.766 96.7094 18.0737 96.7925 18.3752C96.9661 18.9968 97.2383 19.586 97.5986 20.1199C97.864 20.4778 98.1696 20.8035 98.5094 21.0909C98.8324 21.3801 99.1983 21.6165 99.5932 21.7916C99.9789 21.986 100.384 22.1365 100.802 22.2405C102.227 22.5916 103.732 22.3601 104.988 21.5966C105.404 21.3357 105.789 21.0269 106.135 20.6765C106.464 20.3395 106.742 19.9547 106.959 19.535L106.977 19.4944C107.018 19.4391 107.042 19.3735 107.047 19.305C107.054 19.2364 107.04 19.1677 107.009 19.1064C106.983 19.0598 106.947 19.0207 106.902 18.9929C106.857 18.965 106.806 18.9496 106.753 18.9479H105.082C105.012 18.9463 104.942 18.961 104.878 18.9909C104.815 19.0209 104.758 19.0652 104.714 19.1206C104.503 19.3779 104.258 19.6035 103.984 19.7909C103.692 19.9794 103.374 20.1237 103.039 20.2195C102.298 20.4359 101.508 20.4132 100.781 20.1545C100.393 20.0127 100.029 19.8127 99.7005 19.5614C99.3812 19.306 99.1164 18.9891 98.9205 18.629C98.7494 18.2399 98.6285 17.8303 98.5596 17.4103L98.5497 17.3575H98.6061L107.191 17.3392C107.543 17.3392 107.742 17.1199 107.742 16.7299C107.766 16.0707 107.679 15.4123 107.486 14.782ZM105.659 15.5477L98.7128 15.5802L98.7308 15.5213C98.8467 15.126 99.0197 14.7501 99.2448 14.4062C99.5195 13.9978 99.8679 13.6457 100.273 13.3682C100.567 13.1777 100.888 13.0318 101.226 12.9356C101.967 12.7191 102.757 12.7418 103.485 13.0006C103.872 13.1424 104.236 13.3423 104.565 13.5937C104.885 13.8504 105.151 14.1695 105.347 14.5321C105.516 14.831 105.639 15.1553 105.707 15.4928L105.719 15.5477H105.659Z" fill="white"/>
<path d="M55.8341 20.6664C56.1799 20.3095 56.4835 19.9135 56.7388 19.4862C56.9915 19.047 57.1885 18.5775 57.3252 18.0888C57.6094 17.0789 57.6094 16.0092 57.3252 14.9993C57.1885 14.5106 56.9915 14.0411 56.7388 13.6019C56.233 12.7344 55.5158 12.0115 54.6552 11.5016C54.2243 11.25 53.7649 11.0516 53.287 10.9105C52.0542 10.5508 50.7357 10.6341 49.5571 11.1461C49.061 11.3736 48.598 11.6681 48.1808 12.0216L48.1063 12.0846V11.4589C48.1149 11.3814 48.1062 11.3029 48.0806 11.2292C48.055 11.1556 48.0132 11.0888 47.9584 11.0337C47.9035 10.9786 47.837 10.9367 47.7639 10.9112C47.6908 10.8856 47.6128 10.8771 47.5359 10.8861H46.6574C46.5797 10.8768 46.501 10.885 46.4268 10.9102C46.3527 10.9354 46.2851 10.9769 46.2289 11.0318C46.1727 11.0867 46.1294 11.1535 46.1021 11.2274C46.0748 11.3013 46.0642 11.3804 46.071 11.4589V24.942C46.0686 25.0167 46.0811 25.091 46.1077 25.1606C46.1343 25.2303 46.1746 25.2938 46.2262 25.3474C46.2777 25.4011 46.3394 25.4437 46.4076 25.4728C46.4757 25.5019 46.5491 25.5169 46.6231 25.5169H47.5198C47.6776 25.5216 47.8309 25.464 47.947 25.3564C47.9995 25.3031 48.0406 25.2395 48.068 25.1697C48.0953 25.0999 48.1084 25.0252 48.1063 24.9502V21.0096L48.1808 21.0726C48.5921 21.4217 49.05 21.7109 49.541 21.9318C50.7189 22.4437 52.0367 22.527 53.2689 22.1674C53.7537 22.0296 54.2195 21.831 54.6552 21.5764C55.0856 21.3257 55.4818 21.0199 55.8341 20.6664ZM53.1681 20.1017C52.7219 20.311 52.2357 20.4194 51.7435 20.4194C51.2513 20.4194 50.765 20.311 50.3188 20.1017C49.8707 19.8984 49.4683 19.6054 49.136 19.2405C48.7946 18.8796 48.5215 18.459 48.3299 17.9994C48.1365 17.534 48.0368 17.0344 48.0368 16.5298C48.0368 16.0252 48.1365 15.5257 48.3299 15.0602C48.5244 14.6089 48.7974 14.1962 49.136 13.8416C49.4747 13.4882 49.8758 13.2017 50.3188 12.9966C50.7649 12.7879 51.2507 12.6797 51.7424 12.6797C52.2342 12.6797 52.72 12.7879 53.1661 12.9966C53.6025 13.2039 53.9979 13.4895 54.3328 13.8395C54.6658 14.1953 54.9332 14.608 55.1227 15.0582C55.3173 15.523 55.4174 16.0224 55.4174 16.5268C55.4174 17.0312 55.3173 17.5305 55.1227 17.9954C54.9294 18.4525 54.6617 18.874 54.3308 19.2425C54.0022 19.6022 53.6073 19.894 53.1681 20.1017Z" fill="white"/>
<path d="M61.3695 10.9023H60.491C60.4124 10.8927 60.3326 10.9011 60.2577 10.9268C60.1828 10.9526 60.1146 10.9951 60.0582 11.0512C60.0019 11.1072 59.9588 11.1753 59.9322 11.2505C59.9056 11.3257 59.8961 11.406 59.9046 11.4853V24.9501C59.9028 25.0251 59.916 25.0997 59.9433 25.1695C59.9707 25.2393 60.0116 25.3029 60.0638 25.3563C60.1154 25.4082 60.1767 25.449 60.2442 25.4766C60.3117 25.5042 60.3839 25.5179 60.4567 25.5169H61.3514C61.5092 25.5216 61.6624 25.464 61.7786 25.3563C61.8315 25.3034 61.8728 25.2399 61.9002 25.17C61.9276 25.1001 61.9404 25.0252 61.9378 24.9501V21.0096L62.0124 21.0725C62.4243 21.422 62.8826 21.7113 63.3749 21.9317C64.5523 22.4438 65.8705 22.5271 67.1025 22.1674C67.5874 22.0292 68.0531 21.8306 68.489 21.5763C68.9186 21.3212 69.3149 21.012 69.6677 20.6562C70.013 20.2993 70.3156 19.9033 70.5704 19.476C70.8228 19.0367 71.02 18.5673 71.157 18.0786C71.4428 17.0689 71.4428 15.9987 71.157 14.9891C71.0206 14.5003 70.8234 14.0307 70.5704 13.5917C70.0657 12.7239 69.349 12.0008 68.489 11.4914C68.0568 11.2402 67.5967 11.0417 67.1187 10.9003C65.886 10.5408 64.5672 10.6241 63.3885 11.1359C62.8925 11.3634 62.4293 11.6579 62.0124 12.0113L61.9318 12.0947V11.4853C61.9419 11.4077 61.9345 11.3288 61.9101 11.2546C61.8857 11.1803 61.8449 11.1126 61.7908 11.0565C61.7367 11.0004 61.6707 10.9574 61.5977 10.9307C61.5248 10.904 61.4467 10.8943 61.3695 10.9023ZM62.1633 15.0744C62.3586 14.6232 62.6314 14.2106 62.9694 13.8557C63.3067 13.5001 63.7066 13.2108 64.1481 13.0026C64.5945 12.7939 65.08 12.6858 65.5723 12.6858C66.064 12.6858 66.5495 12.7939 66.9959 13.0026C67.438 13.2092 67.8385 13.4956 68.1783 13.8476C68.5113 14.2034 68.7791 14.6161 68.9682 15.0663C69.1636 15.531 69.264 16.0303 69.264 16.5348C69.264 17.0393 69.1636 17.5387 68.9682 18.0034C68.7773 18.4623 68.5094 18.8848 68.1765 19.2526C67.8478 19.612 67.4529 19.9038 67.0139 20.1118C66.5668 20.3206 66.0807 20.4287 65.5884 20.4287C65.0955 20.4287 64.6094 20.3206 64.1623 20.1118C63.7153 19.9077 63.3135 19.6148 62.9818 19.2506C62.6401 18.89 62.3667 18.4694 62.1757 18.0095C61.981 17.5454 61.8797 17.047 61.8776 16.5432C61.8756 16.0393 61.9727 15.5401 62.1633 15.0744Z" fill="white"/>
<path d="M94.3744 11.3188C94.3824 11.24 94.3725 11.1604 94.3459 11.0859C94.3186 11.0115 94.2758 10.9442 94.2194 10.889C94.1629 10.8339 94.0947 10.7924 94.0197 10.7676C93.9453 10.7428 93.8659 10.7354 93.7878 10.746H92.9036C92.8268 10.7369 92.7486 10.7455 92.6755 10.771C92.6023 10.7965 92.536 10.8384 92.4808 10.8935C92.4262 10.9486 92.3847 11.0154 92.3586 11.0891C92.3332 11.1627 92.3245 11.2412 92.3332 11.3188V17.782C92.3406 18.1607 92.2588 18.5359 92.0951 18.8769C91.955 19.1887 91.7485 19.466 91.4912 19.6894C91.2395 19.8985 90.9555 20.0639 90.6504 20.1789C90.3081 20.3067 89.9442 20.3629 89.5796 20.344C89.215 20.3252 88.8579 20.2317 88.5305 20.0692C88.2205 19.9072 87.9514 19.675 87.7449 19.3907C87.5391 19.1202 87.3927 18.8086 87.3158 18.4767C87.2315 18.1392 87.1869 17.7929 87.1825 17.4449V11.4853C87.1924 11.2904 87.1466 11.0967 87.0517 10.9267C86.9798 10.8525 86.8923 10.7957 86.7956 10.7605C86.6989 10.7253 86.596 10.7127 86.4937 10.7236H85.8569C85.762 10.7204 85.6671 10.7368 85.5791 10.7717C85.4904 10.8067 85.4104 10.8594 85.3429 10.9267C85.2722 11.0061 85.2176 11.0989 85.1835 11.1997C85.1488 11.3005 85.1345 11.4073 85.1414 11.5137V17.4632C85.1339 18.113 85.2306 18.7597 85.4278 19.3785C85.6132 19.9549 85.9065 20.49 86.2921 20.9548C86.6772 21.4096 87.1596 21.7707 87.7027 22.011C88.6471 22.3991 89.6844 22.4987 90.6851 22.2974C90.9549 22.2318 91.219 22.1414 91.4726 22.0272C91.7094 21.9165 91.9289 21.7714 92.1236 21.5966L92.2625 21.4666L92.3394 21.3915V21.8444C92.3375 21.9112 92.3487 21.9776 92.3729 22.0397C92.3977 22.1019 92.4337 22.1584 92.4802 22.206C92.5335 22.2727 92.6017 22.3257 92.6792 22.361C92.7561 22.3963 92.841 22.4128 92.9253 22.4091H93.8201C93.8932 22.4106 93.9651 22.3974 94.0327 22.3702C94.1003 22.3429 94.1617 22.3023 94.2132 22.2507C94.2696 22.2003 94.3136 22.1374 94.3415 22.0668C94.3694 21.9963 94.3806 21.9201 94.3744 21.8444V11.3188Z" fill="white"/>
<path d="M116.869 17.644C116.682 17.2513 116.413 16.9046 116.079 16.6284C115.714 16.3282 115.306 16.0839 114.87 15.9033C114.377 15.6968 113.865 15.5377 113.343 15.428C113.087 15.3697 112.837 15.293 112.593 15.1984C112.372 15.1173 112.163 15.0096 111.968 14.8775C111.706 14.7177 111.502 14.476 111.388 14.1889C111.321 13.9782 111.321 13.7518 111.388 13.541C111.458 13.3033 111.757 12.6493 112.909 12.5762C114.012 12.5071 114.565 13.09 114.757 13.35C114.785 13.3866 115.055 13.738 115.249 13.9594C115.283 13.9912 115.322 14.0185 115.363 14.0407C115.443 14.0715 115.528 14.082 115.613 14.071C115.696 14.06 115.776 14.0279 115.845 13.9777L116.518 13.474C116.592 13.4299 116.652 13.3674 116.694 13.2927C116.736 13.2178 116.758 13.1333 116.758 13.0474V13.0271C116.729 12.8965 116.677 12.7722 116.605 12.6594C116.406 12.3722 116.19 12.0968 115.96 11.8348C115.755 11.5909 115.514 11.3793 115.247 11.2072C114.969 11.0338 114.668 10.903 114.352 10.8192C113.453 10.5896 112.507 10.6263 111.628 10.9248C111.184 11.0585 110.772 11.2833 110.418 11.5849C110.081 11.8675 109.81 12.2229 109.627 12.6249C109.444 13.0272 109.346 13.4635 109.34 13.9058C109.334 14.3482 109.419 14.787 109.59 15.1943C109.756 15.5644 110 15.8932 110.306 16.1572C110.635 16.4415 110.997 16.685 111.384 16.8823C111.837 17.097 112.31 17.2697 112.794 17.3982C112.937 17.4307 113.08 17.4693 113.23 17.51C113.379 17.5506 113.524 17.5892 113.671 17.6237C113.932 17.6872 114.184 17.7812 114.423 17.904C114.623 18.0006 114.801 18.139 114.944 18.3102C115.07 18.4965 115.135 18.7173 115.131 18.9424C115.127 19.1675 115.055 19.3859 114.922 19.5675C114.775 19.7567 114.595 19.9166 114.39 20.0388C114.18 20.1618 113.955 20.2547 113.719 20.315C113.322 20.4055 112.908 20.4055 112.51 20.315C112.302 20.2606 112.099 20.1843 111.906 20.0875C111.711 19.9891 111.528 19.8663 111.363 19.7219C111.213 19.5533 111.083 19.368 110.975 19.1694C110.924 19.0512 110.848 18.9457 110.751 18.8607C110.675 18.7962 110.58 18.7559 110.481 18.7447C110.382 18.7335 110.282 18.752 110.193 18.7977L109.387 19.1816C109.319 19.2106 109.257 19.2519 109.203 19.3035C109.16 19.3475 109.124 19.3991 109.098 19.4558C109.067 19.5367 109.061 19.6249 109.079 19.7097C109.087 19.795 109.108 19.8787 109.141 19.9575C109.281 20.3259 109.479 20.6689 109.727 20.9732C110.004 21.305 110.34 21.5807 110.719 21.7856C111.072 21.9985 111.457 22.1528 111.859 22.2427C112.783 22.4632 113.748 22.4323 114.656 22.1533C115.136 22.0183 115.585 21.7892 115.976 21.4789C116.353 21.1915 116.657 20.8167 116.861 20.3861C117.06 19.9573 117.165 19.4896 117.166 19.016C117.167 18.5423 117.066 18.074 116.869 17.644Z" fill="white"/>
</g>
<defs>
<clipPath id="clip0_2_231">
<rect width="117.188" height="25" fill="white" transform="translate(0.0687866 0.516846)"/>
</clipPath>
</defs>
</svg>
