<svg width="118" height="26" viewBox="0 0 118 26" fill="none" xmlns="http://www.w3.org/2000/svg">
<g clip-path="url(#clip0_2_264)">
<path fill-rule="evenodd" clip-rule="evenodd" d="M14.926 0.68859C14.8121 0.822265 14.8056 0.997436 14.7895 4.54559C14.779 6.79929 14.7488 8.26293 14.7135 8.26293C14.6811 8.26293 14.604 8.20666 14.5424 8.13802C14.4141 7.99438 13.7464 7.55465 13.2627 7.29448C11.9795 6.60496 9.78465 6.24305 8.23717 6.4661C7.11659 6.62731 5.16357 7.36471 4.71294 7.79606C4.64409 7.8623 4.39019 8.05104 4.14869 8.21584C3.72853 8.50234 2.29912 9.97113 2.29912 10.116C2.29912 10.1535 2.13963 10.4312 1.9444 10.7333C1.36211 11.6355 1.10331 12.3167 0.748216 13.8828C0.470234 15.1091 0.590981 17.115 1.04651 18.8371C1.21992 19.4935 2.04634 21.1319 2.24871 21.2205C2.27655 21.2325 2.29912 21.2736 2.29912 21.3115C2.29912 21.545 3.43248 22.7564 4.24273 23.3888C6.43311 25.0991 9.77454 25.6094 12.3057 24.6202C12.9843 24.3553 14.2094 23.6917 14.5161 23.4232L14.744 23.2233L14.7752 23.9846C14.8038 24.6745 14.8207 24.7619 14.9584 24.9171L15.1103 25.0887H16.5032C17.7811 25.0887 17.9082 25.0784 18.044 24.9614L18.1918 24.8345V13.5585C18.1918 3.62224 18.181 2.27113 18.0978 2.18614C18.0463 2.13307 17.8063 1.97904 17.5651 1.84337C17.3236 1.7077 17.0697 1.54451 17.0009 1.48026C16.1967 0.733281 15.2092 0.3566 14.926 0.68859ZM67.6037 0.670235C67.5153 0.773982 67.5003 0.96791 67.5003 1.98543C67.5003 3.34571 67.4958 3.33095 68.0156 3.68169C68.1977 3.8046 68.4001 3.95662 68.4651 4.01967C68.5306 4.08271 68.7424 4.22038 68.9353 4.32533C69.1287 4.43027 69.4793 4.65611 69.714 4.8269C70.2756 5.23511 70.6084 5.24708 70.7939 4.86641C70.9316 4.58389 70.9282 1.02856 70.7897 0.744853L70.6942 0.548532H69.2009C67.8339 0.548532 67.6989 0.558906 67.6037 0.670235ZM104.646 0.593621C103.756 0.71333 102.25 1.19336 101.493 1.59877C101.296 1.70452 101.058 1.81145 100.963 1.83579C100.761 1.88886 99.564 2.7344 98.9475 3.26032C98.1391 3.94984 96.8288 5.4849 96.5273 6.0962C96.3167 6.52236 96.0119 7.06704 95.9669 7.09657C95.8879 7.14844 95.2935 8.66874 95.1474 9.19426C94.5827 11.2201 94.5836 11.2105 94.5836 17.3962V22.7552L94.7347 23.1973C94.8179 23.4407 94.9547 23.7188 95.037 23.8154C95.1194 23.9124 95.2332 24.0692 95.2884 24.1645C95.4327 24.4111 96.0416 24.8214 96.4789 24.9658C96.991 25.1346 106.332 25.1534 107.436 24.9874C109.203 24.722 111.388 23.8214 112.607 22.8553C112.815 22.6913 113.041 22.5318 113.111 22.5006C113.181 22.4691 113.501 22.1782 113.824 21.8542C114.146 21.5298 114.435 21.2544 114.466 21.2421C114.496 21.2297 114.74 20.9317 115.006 20.5797C115.274 20.2277 115.552 19.8702 115.626 19.7856C115.699 19.701 115.864 19.4158 115.992 19.1516C116.121 18.887 116.262 18.626 116.309 18.571C116.355 18.5155 116.531 18.156 116.701 17.7718C117.968 14.8911 118.013 10.9564 116.809 8.0295C116.614 7.55425 116.416 7.12091 116.37 7.06585C116.324 7.01118 116.185 6.75181 116.062 6.49004C115.597 5.50565 114.018 3.64977 113.047 2.94868C112.874 2.82378 112.592 2.61151 112.42 2.47584C110.651 1.08722 107.197 0.250857 104.646 0.593621ZM107.028 5.17405C108.395 5.55153 109.489 6.72308 109.849 8.19269C110.014 8.87104 109.985 13.1199 109.811 13.7424C109.67 14.2463 109.505 14.6298 109.33 14.8588C108.527 15.9115 108.01 16.3176 107.103 16.6077C105.264 17.196 103.079 15.9446 102.495 13.969C102.309 13.3369 102.205 9.27047 102.354 8.45605C102.795 6.0563 104.893 4.58389 107.028 5.17405ZM28.5362 6.37672C27.1903 6.49484 25.0578 7.29688 24.324 7.96086C24.1927 8.07977 23.9881 8.2302 23.8692 8.29485C23.4498 8.52389 22.1912 9.98676 21.8368 10.6571C20.7953 12.6271 20.4804 13.8043 20.4804 15.7243C20.4804 23.7863 29.4804 28.0902 35.1484 22.7388C37.0825 20.9125 37.1601 20.5071 35.6422 20.1435C35.2168 20.0418 34.6074 19.8854 34.2888 19.7968C33.4266 19.5566 33.2781 19.5721 32.8824 19.9452C31.0114 21.7082 28.3658 21.9209 26.3428 20.4711C25.3577 19.7652 24.5283 18.6939 24.2744 17.7997L24.1916 17.5072H30.9496H37.7077L37.9101 17.3065L38.1129 17.1058L38.0774 15.7602C38.0572 14.975 38.0049 14.2348 37.9519 13.9826C37.9022 13.7448 37.815 13.3258 37.7577 13.0512C37.6427 12.4986 37.1134 11.272 36.7681 10.7568C36.6455 10.5741 36.5277 10.3646 36.5066 10.2912C36.4322 10.0318 35.1163 8.59252 34.6804 8.29325C34.5077 8.17514 34.2614 7.98879 34.1323 7.87906C33.0076 6.92419 30.37 6.21631 28.5362 6.37672ZM46.7799 6.4681C46.2397 6.51837 45.3381 6.74502 45.0511 6.90224C44.9536 6.95571 44.8296 6.99961 44.775 6.99961C43.9847 6.99961 41.9873 9.00033 41.2312 10.5498C40.3093 12.4379 40.2833 12.6873 40.3051 19.3918L40.3228 24.7679L40.4985 24.9283C40.7249 25.1346 43.2339 25.1817 43.5172 24.985C43.7699 24.809 43.7699 24.8085 43.8022 18.9704L43.8335 13.2843L44.0257 12.7815C44.1318 12.505 44.3763 12.056 44.5692 11.7839C45.2069 10.8842 45.1523 10.9336 46.0592 10.4333C47.0248 9.90015 48.063 9.94524 49.0042 10.561C49.2528 10.7237 49.4762 10.8566 49.5003 10.8566C49.7317 10.8566 50.6513 12.3143 50.859 13.0093C51.117 13.8741 51.1362 14.3389 51.1366 19.7059C51.1373 24.7376 51.1388 24.7994 51.2649 24.9431C51.4737 25.1809 54.0526 25.1681 54.3156 24.9283L54.4912 24.7679L54.5254 19.1923L54.56 13.6167L54.7534 12.985C55.9533 9.06777 60.3409 9.13918 61.6525 13.0976L61.8248 13.6167L61.8567 19.2429C61.8835 23.876 61.9041 24.8884 61.9753 24.979C62.1325 25.1801 64.9243 25.1406 65.1067 24.9347L65.2433 24.781V19.1939C65.2433 12.8968 65.2509 13.0237 64.775 11.5576C64.365 10.294 63.4012 8.75094 62.7358 8.29205C62.6151 8.20905 62.3939 8.02311 62.2442 7.87946C61.0608 6.74144 58.4036 6.13052 56.6966 6.60417C55.2213 7.01357 54.267 7.58737 53.2555 8.67272L52.7722 9.19146L52.5032 8.85668C51.1795 7.2079 48.9266 6.26739 46.7799 6.4681ZM67.8933 6.44775C67.4694 6.53434 67.5003 5.80652 67.5003 15.8153V24.813L67.6654 24.951C67.8313 25.0895 70.2981 25.1705 70.6005 25.0472C70.894 24.9279 70.8857 25.2068 70.8857 15.7782C70.8857 6.10538 70.9049 6.61414 70.5336 6.46451C70.3816 6.40306 68.1788 6.3891 67.8933 6.44775ZM80.4462 6.53035C79.6788 6.6756 78.5729 7.04269 78.0297 7.33319C77.6092 7.55785 76.9584 7.97961 76.9043 8.06261C76.887 8.08855 76.7458 8.19349 76.5905 8.29485C76.4355 8.3966 76.0436 8.76769 75.7201 9.11963C73.5895 11.436 72.7921 14.1893 73.2717 17.5738C73.6053 19.9273 75.5094 22.7464 77.5309 23.8801C78.3702 24.3505 78.5499 24.4367 79.148 24.655C82.2619 25.7914 85.8641 24.88 88.2512 22.3526C90.24 20.2473 91.242 16.6509 90.6119 13.8828C90.257 12.3202 90.0311 11.7065 89.5122 10.8902C89.35 10.6339 89.1428 10.29 89.052 10.1251C88.8193 9.70185 87.723 8.57137 87.109 8.12087C85.1575 6.68996 82.7024 6.10379 80.4462 6.53035ZM105.418 6.47209C104.703 6.65126 104.008 7.32282 103.744 8.08815L103.58 8.56219V10.8902C103.58 13.1534 103.584 13.2296 103.725 13.6498C104.454 15.8217 107.426 16.012 108.398 13.9491C108.683 13.3465 108.699 13.1578 108.677 10.7226L108.658 8.42932L108.464 7.99717C107.917 6.77694 106.678 6.15646 105.418 6.47209ZM106.532 9.28723L106.746 9.51345V11.2344C106.746 12.7472 106.734 12.9751 106.639 13.1199C106.371 13.5321 106.031 13.5704 105.705 13.2244L105.492 12.9982V11.2556V9.51345L105.705 9.28723C105.859 9.12443 105.975 9.06098 106.119 9.06098C106.264 9.06098 106.38 9.12443 106.532 9.28723ZM10.6551 10.1875C14.4758 11.2293 16.0369 15.8879 13.6765 19.2031C13.2303 19.8295 13.0656 19.9923 12.2704 20.5933C10.2364 22.1299 7.06769 21.6048 5.28582 19.4357C1.93086 15.352 5.71201 8.83911 10.6551 10.1875ZM30.6679 10.1914C32.2895 10.7218 33.5763 11.8913 34.1778 13.3812L34.3934 13.916H29.2889H24.1848L24.2698 13.6601C24.4466 13.1283 24.8675 12.3781 25.1515 12.0872C25.223 12.0138 25.3438 11.8681 25.4198 11.7628C26.3914 10.4152 28.9805 9.63997 30.6679 10.1914ZM83.3298 10.2266C84.4029 10.5565 85.0007 10.9293 85.7571 11.7404C89.5776 15.8396 85.9915 22.6032 80.6843 21.3068C79.7999 21.0909 79.4798 20.9173 78.4623 20.1017C76.9434 18.8838 76.2418 16.4458 76.779 14.2531C77.5177 11.2397 80.5541 9.37342 83.3298 10.2266ZM112.551 14.6741C112.669 14.7986 112.765 14.965 112.765 15.0444C112.765 15.4194 112.095 17.206 111.892 17.3743C111.87 17.3923 111.676 17.6468 111.459 17.9393C111.244 18.2322 110.973 18.5462 110.859 18.6376C110.744 18.7294 110.442 18.9724 110.187 19.1783C109.49 19.7418 108.848 20.0438 107.592 20.4005C106.054 20.8375 103.607 20.3714 102.27 19.387C101.35 18.7094 100.276 17.5311 100.133 17.0415C100.106 16.9502 99.9912 16.6792 99.8782 16.439C99.3356 15.2894 99.4231 14.6809 100.132 14.6809C100.489 14.6809 100.627 14.8245 100.796 15.37C100.871 15.6126 101.027 15.9849 101.144 16.1972C101.259 16.4094 101.355 16.607 101.355 16.6361C101.355 16.8935 102.64 18.174 103.185 18.4597C106.494 20.1954 110.32 18.7993 111.353 15.4789C111.678 14.4363 112.076 14.1693 112.551 14.6741Z" fill="white"/>
<path fill-rule="evenodd" clip-rule="evenodd" d="M14.926 0.68859C14.8121 0.822265 14.8056 0.997436 14.7895 4.54559C14.779 6.79929 14.7488 8.26293 14.7135 8.26293C14.6811 8.26293 14.604 8.20666 14.5424 8.13802C14.4141 7.99438 13.7464 7.55465 13.2627 7.29448C11.9795 6.60496 9.78465 6.24305 8.23717 6.4661C7.11659 6.62731 5.16357 7.36471 4.71294 7.79606C4.64409 7.8623 4.39019 8.05104 4.14869 8.21584C3.72853 8.50234 2.29912 9.97113 2.29912 10.116C2.29912 10.1535 2.13963 10.4312 1.9444 10.7333C1.36211 11.6355 1.10331 12.3167 0.748216 13.8828C0.470234 15.1091 0.590981 17.115 1.04651 18.8371C1.21992 19.4935 2.04634 21.1319 2.24871 21.2205C2.27655 21.2325 2.29912 21.2736 2.29912 21.3115C2.29912 21.545 3.43248 22.7564 4.24273 23.3888C6.43311 25.0991 9.77454 25.6094 12.3057 24.6202C12.9843 24.3553 14.2094 23.6917 14.5161 23.4232L14.744 23.2233L14.7752 23.9846C14.8038 24.6745 14.8207 24.7619 14.9584 24.9171L15.1103 25.0887H16.5032C17.7811 25.0887 17.9082 25.0784 18.044 24.9614L18.1918 24.8345V13.5585C18.1918 3.62224 18.181 2.27113 18.0978 2.18614C18.0463 2.13307 17.8063 1.97904 17.5651 1.84337C17.3236 1.7077 17.0697 1.54451 17.0009 1.48026C16.1967 0.733281 15.2092 0.3566 14.926 0.68859ZM67.6037 0.670235C67.5153 0.773982 67.5003 0.96791 67.5003 1.98543C67.5003 3.34571 67.4958 3.33095 68.0156 3.68169C68.1977 3.8046 68.4001 3.95662 68.4651 4.01967C68.5306 4.08271 68.7424 4.22038 68.9353 4.32533C69.1287 4.43027 69.4793 4.65611 69.714 4.8269C70.2756 5.23511 70.6084 5.24708 70.7939 4.86641C70.9316 4.58389 70.9282 1.02856 70.7897 0.744853L70.6942 0.548532H69.2009C67.8339 0.548532 67.6989 0.558906 67.6037 0.670235ZM104.646 0.593621C103.756 0.71333 102.25 1.19336 101.493 1.59877C101.296 1.70452 101.058 1.81145 100.963 1.83579C100.761 1.88886 99.564 2.7344 98.9475 3.26032C98.1391 3.94984 96.8288 5.4849 96.5273 6.0962C96.3167 6.52236 96.0119 7.06704 95.9669 7.09657C95.8879 7.14844 95.2935 8.66874 95.1474 9.19426C94.5827 11.2201 94.5836 11.2105 94.5836 17.3962V22.7552L94.7347 23.1973C94.8179 23.4407 94.9547 23.7188 95.037 23.8154C95.1194 23.9124 95.2332 24.0692 95.2884 24.1645C95.4327 24.4111 96.0416 24.8214 96.4789 24.9658C96.991 25.1346 106.332 25.1534 107.436 24.9874C109.203 24.722 111.388 23.8214 112.607 22.8553C112.815 22.6913 113.041 22.5318 113.111 22.5006C113.181 22.4691 113.501 22.1782 113.824 21.8542C114.146 21.5298 114.435 21.2544 114.466 21.2421C114.496 21.2297 114.74 20.9317 115.006 20.5797C115.274 20.2277 115.552 19.8702 115.626 19.7856C115.699 19.701 115.864 19.4158 115.992 19.1516C116.121 18.887 116.262 18.626 116.309 18.571C116.355 18.5155 116.531 18.156 116.701 17.7718C117.968 14.8911 118.013 10.9564 116.809 8.0295C116.614 7.55425 116.416 7.12091 116.37 7.06585C116.324 7.01118 116.185 6.75181 116.062 6.49004C115.597 5.50565 114.018 3.64977 113.047 2.94868C112.874 2.82378 112.592 2.61151 112.42 2.47584C110.651 1.08722 107.197 0.250857 104.646 0.593621ZM107.028 5.17405C108.395 5.55153 109.489 6.72308 109.849 8.19269C110.014 8.87104 109.985 13.1199 109.811 13.7424C109.67 14.2463 109.505 14.6298 109.33 14.8588C108.527 15.9115 108.01 16.3176 107.103 16.6077C105.264 17.196 103.079 15.9446 102.495 13.969C102.309 13.3369 102.205 9.27047 102.354 8.45605C102.795 6.0563 104.893 4.58389 107.028 5.17405ZM28.5362 6.37672C27.1903 6.49484 25.0578 7.29688 24.324 7.96086C24.1927 8.07977 23.9881 8.2302 23.8692 8.29485C23.4498 8.52389 22.1912 9.98676 21.8368 10.6571C20.7953 12.6271 20.4804 13.8043 20.4804 15.7243C20.4804 23.7863 29.4804 28.0902 35.1484 22.7388C37.0825 20.9125 37.1601 20.5071 35.6422 20.1435C35.2168 20.0418 34.6074 19.8854 34.2888 19.7968C33.4266 19.5566 33.2781 19.5721 32.8824 19.9452C31.0114 21.7082 28.3658 21.9209 26.3428 20.4711C25.3577 19.7652 24.5283 18.6939 24.2744 17.7997L24.1916 17.5072H30.9496H37.7077L37.9101 17.3065L38.1129 17.1058L38.0774 15.7602C38.0572 14.975 38.0049 14.2348 37.9519 13.9826C37.9022 13.7448 37.815 13.3258 37.7577 13.0512C37.6427 12.4986 37.1134 11.272 36.7681 10.7568C36.6455 10.5741 36.5277 10.3646 36.5066 10.2912C36.4322 10.0318 35.1163 8.59252 34.6804 8.29325C34.5077 8.17514 34.2614 7.98879 34.1323 7.87906C33.0076 6.92419 30.37 6.21631 28.5362 6.37672ZM46.7799 6.4681C46.2397 6.51837 45.3381 6.74502 45.0511 6.90224C44.9536 6.95571 44.8296 6.99961 44.775 6.99961C43.9847 6.99961 41.9873 9.00033 41.2312 10.5498C40.3093 12.4379 40.2833 12.6873 40.3051 19.3918L40.3228 24.7679L40.4985 24.9283C40.7249 25.1346 43.2339 25.1817 43.5172 24.985C43.7699 24.809 43.7699 24.8085 43.8022 18.9704L43.8335 13.2843L44.0257 12.7815C44.1318 12.505 44.3763 12.056 44.5692 11.7839C45.2069 10.8842 45.1523 10.9336 46.0592 10.4333C47.0248 9.90015 48.063 9.94524 49.0042 10.561C49.2528 10.7237 49.4762 10.8566 49.5003 10.8566C49.7317 10.8566 50.6513 12.3143 50.859 13.0093C51.117 13.8741 51.1362 14.3389 51.1366 19.7059C51.1373 24.7376 51.1388 24.7994 51.2649 24.9431C51.4737 25.1809 54.0526 25.1681 54.3156 24.9283L54.4912 24.7679L54.5254 19.1923L54.56 13.6167L54.7534 12.985C55.9533 9.06777 60.3409 9.13918 61.6525 13.0976L61.8248 13.6167L61.8567 19.2429C61.8835 23.876 61.9041 24.8884 61.9753 24.979C62.1325 25.1801 64.9243 25.1406 65.1067 24.9347L65.2433 24.781V19.1939C65.2433 12.8968 65.2509 13.0237 64.775 11.5576C64.365 10.294 63.4012 8.75094 62.7358 8.29205C62.6151 8.20905 62.3939 8.02311 62.2442 7.87946C61.0608 6.74144 58.4036 6.13052 56.6966 6.60417C55.2213 7.01357 54.267 7.58737 53.2555 8.67272L52.7722 9.19146L52.5032 8.85668C51.1795 7.2079 48.9266 6.26739 46.7799 6.4681ZM67.8933 6.44775C67.4694 6.53434 67.5003 5.80652 67.5003 15.8153V24.813L67.6654 24.951C67.8313 25.0895 70.2981 25.1705 70.6005 25.0472C70.894 24.9279 70.8857 25.2068 70.8857 15.7782C70.8857 6.10538 70.9049 6.61414 70.5336 6.46451C70.3816 6.40306 68.1788 6.3891 67.8933 6.44775ZM80.4462 6.53035C79.6788 6.6756 78.5729 7.04269 78.0297 7.33319C77.6092 7.55785 76.9584 7.97961 76.9043 8.06261C76.887 8.08855 76.7458 8.19349 76.5905 8.29485C76.4355 8.3966 76.0436 8.76769 75.7201 9.11963C73.5895 11.436 72.7921 14.1893 73.2717 17.5738C73.6053 19.9273 75.5094 22.7464 77.5309 23.8801C78.3702 24.3505 78.5499 24.4367 79.148 24.655C82.2619 25.7914 85.8641 24.88 88.2512 22.3526C90.24 20.2473 91.242 16.6509 90.6119 13.8828C90.257 12.3202 90.0311 11.7065 89.5122 10.8902C89.35 10.6339 89.1428 10.29 89.052 10.1251C88.8193 9.70185 87.723 8.57137 87.109 8.12087C85.1575 6.68996 82.7024 6.10379 80.4462 6.53035ZM105.418 6.47209C104.703 6.65126 104.008 7.32282 103.744 8.08815L103.58 8.56219V10.8902C103.58 13.1534 103.584 13.2296 103.725 13.6498C104.454 15.8217 107.426 16.012 108.398 13.9491C108.683 13.3465 108.699 13.1578 108.677 10.7226L108.658 8.42932L108.464 7.99717C107.917 6.77694 106.678 6.15646 105.418 6.47209ZM106.532 9.28723L106.746 9.51345V11.2344C106.746 12.7472 106.734 12.9751 106.639 13.1199C106.371 13.5321 106.031 13.5704 105.705 13.2244L105.492 12.9982V11.2556V9.51345L105.705 9.28723C105.859 9.12443 105.975 9.06098 106.119 9.06098C106.264 9.06098 106.38 9.12443 106.532 9.28723ZM10.6551 10.1875C14.4758 11.2293 16.0369 15.8879 13.6765 19.2031C13.2303 19.8295 13.0656 19.9923 12.2704 20.5933C10.2364 22.1299 7.06769 21.6048 5.28582 19.4357C1.93086 15.352 5.71201 8.83911 10.6551 10.1875ZM30.6679 10.1914C32.2895 10.7218 33.5763 11.8913 34.1778 13.3812L34.3934 13.916H29.2889H24.1848L24.2698 13.6601C24.4466 13.1283 24.8675 12.3781 25.1515 12.0872C25.223 12.0138 25.3438 11.8681 25.4198 11.7628C26.3914 10.4152 28.9805 9.63997 30.6679 10.1914ZM83.3298 10.2266C84.4029 10.5565 85.0007 10.9293 85.7571 11.7404C89.5776 15.8396 85.9915 22.6032 80.6843 21.3068C79.7999 21.0909 79.4798 20.9173 78.4623 20.1017C76.9434 18.8838 76.2418 16.4458 76.779 14.2531C77.5177 11.2397 80.5541 9.37342 83.3298 10.2266ZM112.551 14.6741C112.669 14.7986 112.765 14.965 112.765 15.0444C112.765 15.4194 112.095 17.206 111.892 17.3743C111.87 17.3923 111.676 17.6468 111.459 17.9393C111.244 18.2322 110.973 18.5462 110.859 18.6376C110.744 18.7294 110.442 18.9724 110.187 19.1783C109.49 19.7418 108.848 20.0438 107.592 20.4005C106.054 20.8375 103.607 20.3714 102.27 19.387C101.35 18.7094 100.276 17.5311 100.133 17.0415C100.106 16.9502 99.9912 16.6792 99.8782 16.439C99.3356 15.2894 99.4231 14.6809 100.132 14.6809C100.489 14.6809 100.627 14.8245 100.796 15.37C100.871 15.6126 101.027 15.9849 101.144 16.1972C101.259 16.4094 101.355 16.607 101.355 16.6361C101.355 16.8935 102.64 18.174 103.185 18.4597C106.494 20.1954 110.32 18.7993 111.353 15.4789C111.678 14.4363 112.076 14.1693 112.551 14.6741Z" fill="white"/>
<path fill-rule="evenodd" clip-rule="evenodd" d="M14.926 0.68859C14.8121 0.822265 14.8056 0.997436 14.7895 4.54559C14.779 6.79929 14.7488 8.26293 14.7135 8.26293C14.6811 8.26293 14.604 8.20666 14.5424 8.13802C14.4141 7.99438 13.7464 7.55465 13.2627 7.29448C11.9795 6.60496 9.78465 6.24305 8.23717 6.4661C7.11659 6.62731 5.16357 7.36471 4.71294 7.79606C4.64409 7.8623 4.39019 8.05104 4.14869 8.21584C3.72853 8.50234 2.29912 9.97113 2.29912 10.116C2.29912 10.1535 2.13963 10.4312 1.9444 10.7333C1.36211 11.6355 1.10331 12.3167 0.748216 13.8828C0.470234 15.1091 0.590981 17.115 1.04651 18.8371C1.21992 19.4935 2.04634 21.1319 2.24871 21.2205C2.27655 21.2325 2.29912 21.2736 2.29912 21.3115C2.29912 21.545 3.43248 22.7564 4.24273 23.3888C6.43311 25.0991 9.77454 25.6094 12.3057 24.6202C12.9843 24.3553 14.2094 23.6917 14.5161 23.4232L14.744 23.2233L14.7752 23.9846C14.8038 24.6745 14.8207 24.7619 14.9584 24.9171L15.1103 25.0887H16.5032C17.7811 25.0887 17.9082 25.0784 18.044 24.9614L18.1918 24.8345V13.5585C18.1918 3.62224 18.181 2.27113 18.0978 2.18614C18.0463 2.13307 17.8063 1.97904 17.5651 1.84337C17.3236 1.7077 17.0697 1.54451 17.0009 1.48026C16.1967 0.733281 15.2092 0.3566 14.926 0.68859ZM67.6037 0.670235C67.5153 0.773982 67.5003 0.96791 67.5003 1.98543C67.5003 3.34571 67.4958 3.33095 68.0156 3.68169C68.1977 3.8046 68.4001 3.95662 68.4651 4.01967C68.5306 4.08271 68.7424 4.22038 68.9353 4.32533C69.1287 4.43027 69.4793 4.65611 69.714 4.8269C70.2756 5.23511 70.6084 5.24708 70.7939 4.86641C70.9316 4.58389 70.9282 1.02856 70.7897 0.744853L70.6942 0.548532H69.2009C67.8339 0.548532 67.6989 0.558906 67.6037 0.670235ZM104.646 0.593621C103.756 0.71333 102.25 1.19336 101.493 1.59877C101.296 1.70452 101.058 1.81145 100.963 1.83579C100.761 1.88886 99.564 2.7344 98.9475 3.26032C98.1391 3.94984 96.8288 5.4849 96.5273 6.0962C96.3167 6.52236 96.0119 7.06704 95.9669 7.09657C95.8879 7.14844 95.2935 8.66874 95.1474 9.19426C94.5827 11.2201 94.5836 11.2105 94.5836 17.3962V22.7552L94.7347 23.1973C94.8179 23.4407 94.9547 23.7188 95.037 23.8154C95.1194 23.9124 95.2332 24.0692 95.2884 24.1645C95.4327 24.4111 96.0416 24.8214 96.4789 24.9658C96.991 25.1346 106.332 25.1534 107.436 24.9874C109.203 24.722 111.388 23.8214 112.607 22.8553C112.815 22.6913 113.041 22.5318 113.111 22.5006C113.181 22.4691 113.501 22.1782 113.824 21.8542C114.146 21.5298 114.435 21.2544 114.466 21.2421C114.496 21.2297 114.74 20.9317 115.006 20.5797C115.274 20.2277 115.552 19.8702 115.626 19.7856C115.699 19.701 115.864 19.4158 115.992 19.1516C116.121 18.887 116.262 18.626 116.309 18.571C116.355 18.5155 116.531 18.156 116.701 17.7718C117.968 14.8911 118.013 10.9564 116.809 8.0295C116.614 7.55425 116.416 7.12091 116.37 7.06585C116.324 7.01118 116.185 6.75181 116.062 6.49004C115.597 5.50565 114.018 3.64977 113.047 2.94868C112.874 2.82378 112.592 2.61151 112.42 2.47584C110.651 1.08722 107.197 0.250857 104.646 0.593621ZM107.028 5.17405C108.395 5.55153 109.489 6.72308 109.849 8.19269C110.014 8.87104 109.985 13.1199 109.811 13.7424C109.67 14.2463 109.505 14.6298 109.33 14.8588C108.527 15.9115 108.01 16.3176 107.103 16.6077C105.264 17.196 103.079 15.9446 102.495 13.969C102.309 13.3369 102.205 9.27047 102.354 8.45605C102.795 6.0563 104.893 4.58389 107.028 5.17405ZM28.5362 6.37672C27.1903 6.49484 25.0578 7.29688 24.324 7.96086C24.1927 8.07977 23.9881 8.2302 23.8692 8.29485C23.4498 8.52389 22.1912 9.98676 21.8368 10.6571C20.7953 12.6271 20.4804 13.8043 20.4804 15.7243C20.4804 23.7863 29.4804 28.0902 35.1484 22.7388C37.0825 20.9125 37.1601 20.5071 35.6422 20.1435C35.2168 20.0418 34.6074 19.8854 34.2888 19.7968C33.4266 19.5566 33.2781 19.5721 32.8824 19.9452C31.0114 21.7082 28.3658 21.9209 26.3428 20.4711C25.3577 19.7652 24.5283 18.6939 24.2744 17.7997L24.1916 17.5072H30.9496H37.7077L37.9101 17.3065L38.1129 17.1058L38.0774 15.7602C38.0572 14.975 38.0049 14.2348 37.9519 13.9826C37.9022 13.7448 37.815 13.3258 37.7577 13.0512C37.6427 12.4986 37.1134 11.272 36.7681 10.7568C36.6455 10.5741 36.5277 10.3646 36.5066 10.2912C36.4322 10.0318 35.1163 8.59252 34.6804 8.29325C34.5077 8.17514 34.2614 7.98879 34.1323 7.87906C33.0076 6.92419 30.37 6.21631 28.5362 6.37672ZM46.7799 6.4681C46.2397 6.51837 45.3381 6.74502 45.0511 6.90224C44.9536 6.95571 44.8296 6.99961 44.775 6.99961C43.9847 6.99961 41.9873 9.00033 41.2312 10.5498C40.3093 12.4379 40.2833 12.6873 40.3051 19.3918L40.3228 24.7679L40.4985 24.9283C40.7249 25.1346 43.2339 25.1817 43.5172 24.985C43.7699 24.809 43.7699 24.8085 43.8022 18.9704L43.8335 13.2843L44.0257 12.7815C44.1318 12.505 44.3763 12.056 44.5692 11.7839C45.2069 10.8842 45.1523 10.9336 46.0592 10.4333C47.0248 9.90015 48.063 9.94524 49.0042 10.561C49.2528 10.7237 49.4762 10.8566 49.5003 10.8566C49.7317 10.8566 50.6513 12.3143 50.859 13.0093C51.117 13.8741 51.1362 14.3389 51.1366 19.7059C51.1373 24.7376 51.1388 24.7994 51.2649 24.9431C51.4737 25.1809 54.0526 25.1681 54.3156 24.9283L54.4912 24.7679L54.5254 19.1923L54.56 13.6167L54.7534 12.985C55.9533 9.06777 60.3409 9.13918 61.6525 13.0976L61.8248 13.6167L61.8567 19.2429C61.8835 23.876 61.9041 24.8884 61.9753 24.979C62.1325 25.1801 64.9243 25.1406 65.1067 24.9347L65.2433 24.781V19.1939C65.2433 12.8968 65.2509 13.0237 64.775 11.5576C64.365 10.294 63.4012 8.75094 62.7358 8.29205C62.6151 8.20905 62.3939 8.02311 62.2442 7.87946C61.0608 6.74144 58.4036 6.13052 56.6966 6.60417C55.2213 7.01357 54.267 7.58737 53.2555 8.67272L52.7722 9.19146L52.5032 8.85668C51.1795 7.2079 48.9266 6.26739 46.7799 6.4681ZM67.8933 6.44775C67.4694 6.53434 67.5003 5.80652 67.5003 15.8153V24.813L67.6654 24.951C67.8313 25.0895 70.2981 25.1705 70.6005 25.0472C70.894 24.9279 70.8857 25.2068 70.8857 15.7782C70.8857 6.10538 70.9049 6.61414 70.5336 6.46451C70.3816 6.40306 68.1788 6.3891 67.8933 6.44775ZM80.4462 6.53035C79.6788 6.6756 78.5729 7.04269 78.0297 7.33319C77.6092 7.55785 76.9584 7.97961 76.9043 8.06261C76.887 8.08855 76.7458 8.19349 76.5905 8.29485C76.4355 8.3966 76.0436 8.76769 75.7201 9.11963C73.5895 11.436 72.7921 14.1893 73.2717 17.5738C73.6053 19.9273 75.5094 22.7464 77.5309 23.8801C78.3702 24.3505 78.5499 24.4367 79.148 24.655C82.2619 25.7914 85.8641 24.88 88.2512 22.3526C90.24 20.2473 91.242 16.6509 90.6119 13.8828C90.257 12.3202 90.0311 11.7065 89.5122 10.8902C89.35 10.6339 89.1428 10.29 89.052 10.1251C88.8193 9.70185 87.723 8.57137 87.109 8.12087C85.1575 6.68996 82.7024 6.10379 80.4462 6.53035ZM105.418 6.47209C104.703 6.65126 104.008 7.32282 103.744 8.08815L103.58 8.56219V10.8902C103.58 13.1534 103.584 13.2296 103.725 13.6498C104.454 15.8217 107.426 16.012 108.398 13.9491C108.683 13.3465 108.699 13.1578 108.677 10.7226L108.658 8.42932L108.464 7.99717C107.917 6.77694 106.678 6.15646 105.418 6.47209ZM106.532 9.28723L106.746 9.51345V11.2344C106.746 12.7472 106.734 12.9751 106.639 13.1199C106.371 13.5321 106.031 13.5704 105.705 13.2244L105.492 12.9982V11.2556V9.51345L105.705 9.28723C105.859 9.12443 105.975 9.06098 106.119 9.06098C106.264 9.06098 106.38 9.12443 106.532 9.28723ZM10.6551 10.1875C14.4758 11.2293 16.0369 15.8879 13.6765 19.2031C13.2303 19.8295 13.0656 19.9923 12.2704 20.5933C10.2364 22.1299 7.06769 21.6048 5.28582 19.4357C1.93086 15.352 5.71201 8.83911 10.6551 10.1875ZM30.6679 10.1914C32.2895 10.7218 33.5763 11.8913 34.1778 13.3812L34.3934 13.916H29.2889H24.1848L24.2698 13.6601C24.4466 13.1283 24.8675 12.3781 25.1515 12.0872C25.223 12.0138 25.3438 11.8681 25.4198 11.7628C26.3914 10.4152 28.9805 9.63997 30.6679 10.1914ZM83.3298 10.2266C84.4029 10.5565 85.0007 10.9293 85.7571 11.7404C89.5776 15.8396 85.9915 22.6032 80.6843 21.3068C79.7999 21.0909 79.4798 20.9173 78.4623 20.1017C76.9434 18.8838 76.2418 16.4458 76.779 14.2531C77.5177 11.2397 80.5541 9.37342 83.3298 10.2266ZM112.551 14.6741C112.669 14.7986 112.765 14.965 112.765 15.0444C112.765 15.4194 112.095 17.206 111.892 17.3743C111.87 17.3923 111.676 17.6468 111.459 17.9393C111.244 18.2322 110.973 18.5462 110.859 18.6376C110.744 18.7294 110.442 18.9724 110.187 19.1783C109.49 19.7418 108.848 20.0438 107.592 20.4005C106.054 20.8375 103.607 20.3714 102.27 19.387C101.35 18.7094 100.276 17.5311 100.133 17.0415C100.106 16.9502 99.9912 16.6792 99.8782 16.439C99.3356 15.2894 99.4231 14.6809 100.132 14.6809C100.489 14.6809 100.627 14.8245 100.796 15.37C100.871 15.6126 101.027 15.9849 101.144 16.1972C101.259 16.4094 101.355 16.607 101.355 16.6361C101.355 16.8935 102.64 18.174 103.185 18.4597C106.494 20.1954 110.32 18.7993 111.353 15.4789C111.678 14.4363 112.076 14.1693 112.551 14.6741Z" fill="white"/>
<path fill-rule="evenodd" clip-rule="evenodd" d="M14.926 0.68859C14.8121 0.822265 14.8056 0.997436 14.7895 4.54559C14.779 6.79929 14.7488 8.26293 14.7135 8.26293C14.6811 8.26293 14.604 8.20666 14.5424 8.13802C14.4141 7.99438 13.7464 7.55465 13.2627 7.29448C11.9795 6.60496 9.78465 6.24305 8.23717 6.4661C7.11659 6.62731 5.16357 7.36471 4.71294 7.79606C4.64409 7.8623 4.39019 8.05104 4.14869 8.21584C3.72853 8.50234 2.29912 9.97113 2.29912 10.116C2.29912 10.1535 2.13963 10.4312 1.9444 10.7333C1.36211 11.6355 1.10331 12.3167 0.748216 13.8828C0.470234 15.1091 0.590981 17.115 1.04651 18.8371C1.21992 19.4935 2.04634 21.1319 2.24871 21.2205C2.27655 21.2325 2.29912 21.2736 2.29912 21.3115C2.29912 21.545 3.43248 22.7564 4.24273 23.3888C6.43311 25.0991 9.77454 25.6094 12.3057 24.6202C12.9843 24.3553 14.2094 23.6917 14.5161 23.4232L14.744 23.2233L14.7752 23.9846C14.8038 24.6745 14.8207 24.7619 14.9584 24.9171L15.1103 25.0887H16.5032C17.7811 25.0887 17.9082 25.0784 18.044 24.9614L18.1918 24.8345V13.5585C18.1918 3.62224 18.181 2.27113 18.0978 2.18614C18.0463 2.13307 17.8063 1.97904 17.5651 1.84337C17.3236 1.7077 17.0697 1.54451 17.0009 1.48026C16.1967 0.733281 15.2092 0.3566 14.926 0.68859ZM67.6037 0.670235C67.5153 0.773982 67.5003 0.96791 67.5003 1.98543C67.5003 3.34571 67.4958 3.33095 68.0156 3.68169C68.1977 3.8046 68.4001 3.95662 68.4651 4.01967C68.5306 4.08271 68.7424 4.22038 68.9353 4.32533C69.1287 4.43027 69.4793 4.65611 69.714 4.8269C70.2756 5.23511 70.6084 5.24708 70.7939 4.86641C70.9316 4.58389 70.9282 1.02856 70.7897 0.744853L70.6942 0.548532H69.2009C67.8339 0.548532 67.6989 0.558906 67.6037 0.670235ZM104.646 0.593621C103.756 0.71333 102.25 1.19336 101.493 1.59877C101.296 1.70452 101.058 1.81145 100.963 1.83579C100.761 1.88886 99.564 2.7344 98.9475 3.26032C98.1391 3.94984 96.8288 5.4849 96.5273 6.0962C96.3167 6.52236 96.0119 7.06704 95.9669 7.09657C95.8879 7.14844 95.2935 8.66874 95.1474 9.19426C94.5827 11.2201 94.5836 11.2105 94.5836 17.3962V22.7552L94.7347 23.1973C94.8179 23.4407 94.9547 23.7188 95.037 23.8154C95.1194 23.9124 95.2332 24.0692 95.2884 24.1645C95.4327 24.4111 96.0416 24.8214 96.4789 24.9658C96.991 25.1346 106.332 25.1534 107.436 24.9874C109.203 24.722 111.388 23.8214 112.607 22.8553C112.815 22.6913 113.041 22.5318 113.111 22.5006C113.181 22.4691 113.501 22.1782 113.824 21.8542C114.146 21.5298 114.435 21.2544 114.466 21.2421C114.496 21.2297 114.74 20.9317 115.006 20.5797C115.274 20.2277 115.552 19.8702 115.626 19.7856C115.699 19.701 115.864 19.4158 115.992 19.1516C116.121 18.887 116.262 18.626 116.309 18.571C116.355 18.5155 116.531 18.156 116.701 17.7718C117.968 14.8911 118.013 10.9564 116.809 8.0295C116.614 7.55425 116.416 7.12091 116.37 7.06585C116.324 7.01118 116.185 6.75181 116.062 6.49004C115.597 5.50565 114.018 3.64977 113.047 2.94868C112.874 2.82378 112.592 2.61151 112.42 2.47584C110.651 1.08722 107.197 0.250857 104.646 0.593621ZM107.028 5.17405C108.395 5.55153 109.489 6.72308 109.849 8.19269C110.014 8.87104 109.985 13.1199 109.811 13.7424C109.67 14.2463 109.505 14.6298 109.33 14.8588C108.527 15.9115 108.01 16.3176 107.103 16.6077C105.264 17.196 103.079 15.9446 102.495 13.969C102.309 13.3369 102.205 9.27047 102.354 8.45605C102.795 6.0563 104.893 4.58389 107.028 5.17405ZM28.5362 6.37672C27.1903 6.49484 25.0578 7.29688 24.324 7.96086C24.1927 8.07977 23.9881 8.2302 23.8692 8.29485C23.4498 8.52389 22.1912 9.98676 21.8368 10.6571C20.7953 12.6271 20.4804 13.8043 20.4804 15.7243C20.4804 23.7863 29.4804 28.0902 35.1484 22.7388C37.0825 20.9125 37.1601 20.5071 35.6422 20.1435C35.2168 20.0418 34.6074 19.8854 34.2888 19.7968C33.4266 19.5566 33.2781 19.5721 32.8824 19.9452C31.0114 21.7082 28.3658 21.9209 26.3428 20.4711C25.3577 19.7652 24.5283 18.6939 24.2744 17.7997L24.1916 17.5072H30.9496H37.7077L37.9101 17.3065L38.1129 17.1058L38.0774 15.7602C38.0572 14.975 38.0049 14.2348 37.9519 13.9826C37.9022 13.7448 37.815 13.3258 37.7577 13.0512C37.6427 12.4986 37.1134 11.272 36.7681 10.7568C36.6455 10.5741 36.5277 10.3646 36.5066 10.2912C36.4322 10.0318 35.1163 8.59252 34.6804 8.29325C34.5077 8.17514 34.2614 7.98879 34.1323 7.87906C33.0076 6.92419 30.37 6.21631 28.5362 6.37672ZM46.7799 6.4681C46.2397 6.51837 45.3381 6.74502 45.0511 6.90224C44.9536 6.95571 44.8296 6.99961 44.775 6.99961C43.9847 6.99961 41.9873 9.00033 41.2312 10.5498C40.3093 12.4379 40.2833 12.6873 40.3051 19.3918L40.3228 24.7679L40.4985 24.9283C40.7249 25.1346 43.2339 25.1817 43.5172 24.985C43.7699 24.809 43.7699 24.8085 43.8022 18.9704L43.8335 13.2843L44.0257 12.7815C44.1318 12.505 44.3763 12.056 44.5692 11.7839C45.2069 10.8842 45.1523 10.9336 46.0592 10.4333C47.0248 9.90015 48.063 9.94524 49.0042 10.561C49.2528 10.7237 49.4762 10.8566 49.5003 10.8566C49.7317 10.8566 50.6513 12.3143 50.859 13.0093C51.117 13.8741 51.1362 14.3389 51.1366 19.7059C51.1373 24.7376 51.1388 24.7994 51.2649 24.9431C51.4737 25.1809 54.0526 25.1681 54.3156 24.9283L54.4912 24.7679L54.5254 19.1923L54.56 13.6167L54.7534 12.985C55.9533 9.06777 60.3409 9.13918 61.6525 13.0976L61.8248 13.6167L61.8567 19.2429C61.8835 23.876 61.9041 24.8884 61.9753 24.979C62.1325 25.1801 64.9243 25.1406 65.1067 24.9347L65.2433 24.781V19.1939C65.2433 12.8968 65.2509 13.0237 64.775 11.5576C64.365 10.294 63.4012 8.75094 62.7358 8.29205C62.6151 8.20905 62.3939 8.02311 62.2442 7.87946C61.0608 6.74144 58.4036 6.13052 56.6966 6.60417C55.2213 7.01357 54.267 7.58737 53.2555 8.67272L52.7722 9.19146L52.5032 8.85668C51.1795 7.2079 48.9266 6.26739 46.7799 6.4681ZM67.8933 6.44775C67.4694 6.53434 67.5003 5.80652 67.5003 15.8153V24.813L67.6654 24.951C67.8313 25.0895 70.2981 25.1705 70.6005 25.0472C70.894 24.9279 70.8857 25.2068 70.8857 15.7782C70.8857 6.10538 70.9049 6.61414 70.5336 6.46451C70.3816 6.40306 68.1788 6.3891 67.8933 6.44775ZM80.4462 6.53035C79.6788 6.6756 78.5729 7.04269 78.0297 7.33319C77.6092 7.55785 76.9584 7.97961 76.9043 8.06261C76.887 8.08855 76.7458 8.19349 76.5905 8.29485C76.4355 8.3966 76.0436 8.76769 75.7201 9.11963C73.5895 11.436 72.7921 14.1893 73.2717 17.5738C73.6053 19.9273 75.5094 22.7464 77.5309 23.8801C78.3702 24.3505 78.5499 24.4367 79.148 24.655C82.2619 25.7914 85.8641 24.88 88.2512 22.3526C90.24 20.2473 91.242 16.6509 90.6119 13.8828C90.257 12.3202 90.0311 11.7065 89.5122 10.8902C89.35 10.6339 89.1428 10.29 89.052 10.1251C88.8193 9.70185 87.723 8.57137 87.109 8.12087C85.1575 6.68996 82.7024 6.10379 80.4462 6.53035ZM105.418 6.47209C104.703 6.65126 104.008 7.32282 103.744 8.08815L103.58 8.56219V10.8902C103.58 13.1534 103.584 13.2296 103.725 13.6498C104.454 15.8217 107.426 16.012 108.398 13.9491C108.683 13.3465 108.699 13.1578 108.677 10.7226L108.658 8.42932L108.464 7.99717C107.917 6.77694 106.678 6.15646 105.418 6.47209ZM106.532 9.28723L106.746 9.51345V11.2344C106.746 12.7472 106.734 12.9751 106.639 13.1199C106.371 13.5321 106.031 13.5704 105.705 13.2244L105.492 12.9982V11.2556V9.51345L105.705 9.28723C105.859 9.12443 105.975 9.06098 106.119 9.06098C106.264 9.06098 106.38 9.12443 106.532 9.28723ZM10.6551 10.1875C14.4758 11.2293 16.0369 15.8879 13.6765 19.2031C13.2303 19.8295 13.0656 19.9923 12.2704 20.5933C10.2364 22.1299 7.06769 21.6048 5.28582 19.4357C1.93086 15.352 5.71201 8.83911 10.6551 10.1875ZM30.6679 10.1914C32.2895 10.7218 33.5763 11.8913 34.1778 13.3812L34.3934 13.916H29.2889H24.1848L24.2698 13.6601C24.4466 13.1283 24.8675 12.3781 25.1515 12.0872C25.223 12.0138 25.3438 11.8681 25.4198 11.7628C26.3914 10.4152 28.9805 9.63997 30.6679 10.1914ZM83.3298 10.2266C84.4029 10.5565 85.0007 10.9293 85.7571 11.7404C89.5776 15.8396 85.9915 22.6032 80.6843 21.3068C79.7999 21.0909 79.4798 20.9173 78.4623 20.1017C76.9434 18.8838 76.2418 16.4458 76.779 14.2531C77.5177 11.2397 80.5541 9.37342 83.3298 10.2266ZM112.551 14.6741C112.669 14.7986 112.765 14.965 112.765 15.0444C112.765 15.4194 112.095 17.206 111.892 17.3743C111.87 17.3923 111.676 17.6468 111.459 17.9393C111.244 18.2322 110.973 18.5462 110.859 18.6376C110.744 18.7294 110.442 18.9724 110.187 19.1783C109.49 19.7418 108.848 20.0438 107.592 20.4005C106.054 20.8375 103.607 20.3714 102.27 19.387C101.35 18.7094 100.276 17.5311 100.133 17.0415C100.106 16.9502 99.9912 16.6792 99.8782 16.439C99.3356 15.2894 99.4231 14.6809 100.132 14.6809C100.489 14.6809 100.627 14.8245 100.796 15.37C100.871 15.6126 101.027 15.9849 101.144 16.1972C101.259 16.4094 101.355 16.607 101.355 16.6361C101.355 16.8935 102.64 18.174 103.185 18.4597C106.494 20.1954 110.32 18.7993 111.353 15.4789C111.678 14.4363 112.076 14.1693 112.551 14.6741Z" fill="white"/>
<path fill-rule="evenodd" clip-rule="evenodd" d="M14.926 0.68859C14.8121 0.822265 14.8056 0.997436 14.7895 4.54559C14.779 6.79929 14.7488 8.26293 14.7135 8.26293C14.6811 8.26293 14.604 8.20666 14.5424 8.13802C14.4141 7.99438 13.7464 7.55465 13.2627 7.29448C11.9795 6.60496 9.78465 6.24305 8.23717 6.4661C7.11659 6.62731 5.16357 7.36471 4.71294 7.79606C4.64409 7.8623 4.39019 8.05104 4.14869 8.21584C3.72853 8.50234 2.29912 9.97113 2.29912 10.116C2.29912 10.1535 2.13963 10.4312 1.9444 10.7333C1.36211 11.6355 1.10331 12.3167 0.748216 13.8828C0.470234 15.1091 0.590981 17.115 1.04651 18.8371C1.21992 19.4935 2.04634 21.1319 2.24871 21.2205C2.27655 21.2325 2.29912 21.2736 2.29912 21.3115C2.29912 21.545 3.43248 22.7564 4.24273 23.3888C6.43311 25.0991 9.77454 25.6094 12.3057 24.6202C12.9843 24.3553 14.2094 23.6917 14.5161 23.4232L14.744 23.2233L14.7752 23.9846C14.8038 24.6745 14.8207 24.7619 14.9584 24.9171L15.1103 25.0887H16.5032C17.7811 25.0887 17.9082 25.0784 18.044 24.9614L18.1918 24.8345V13.5585C18.1918 3.62224 18.181 2.27113 18.0978 2.18614C18.0463 2.13307 17.8063 1.97904 17.5651 1.84337C17.3236 1.7077 17.0697 1.54451 17.0009 1.48026C16.1967 0.733281 15.2092 0.3566 14.926 0.68859ZM67.6037 0.670235C67.5153 0.773982 67.5003 0.96791 67.5003 1.98543C67.5003 3.34571 67.4958 3.33095 68.0156 3.68169C68.1977 3.8046 68.4001 3.95662 68.4651 4.01967C68.5306 4.08271 68.7424 4.22038 68.9353 4.32533C69.1287 4.43027 69.4793 4.65611 69.714 4.8269C70.2756 5.23511 70.6084 5.24708 70.7939 4.86641C70.9316 4.58389 70.9282 1.02856 70.7897 0.744853L70.6942 0.548532H69.2009C67.8339 0.548532 67.6989 0.558906 67.6037 0.670235ZM104.646 0.593621C103.756 0.71333 102.25 1.19336 101.493 1.59877C101.296 1.70452 101.058 1.81145 100.963 1.83579C100.761 1.88886 99.564 2.7344 98.9475 3.26032C98.1391 3.94984 96.8288 5.4849 96.5273 6.0962C96.3167 6.52236 96.0119 7.06704 95.9669 7.09657C95.8879 7.14844 95.2935 8.66874 95.1474 9.19426C94.5827 11.2201 94.5836 11.2105 94.5836 17.3962V22.7552L94.7347 23.1973C94.8179 23.4407 94.9547 23.7188 95.037 23.8154C95.1194 23.9124 95.2332 24.0692 95.2884 24.1645C95.4327 24.4111 96.0416 24.8214 96.4789 24.9658C96.991 25.1346 106.332 25.1534 107.436 24.9874C109.203 24.722 111.388 23.8214 112.607 22.8553C112.815 22.6913 113.041 22.5318 113.111 22.5006C113.181 22.4691 113.501 22.1782 113.824 21.8542C114.146 21.5298 114.435 21.2544 114.466 21.2421C114.496 21.2297 114.74 20.9317 115.006 20.5797C115.274 20.2277 115.552 19.8702 115.626 19.7856C115.699 19.701 115.864 19.4158 115.992 19.1516C116.121 18.887 116.262 18.626 116.309 18.571C116.355 18.5155 116.531 18.156 116.701 17.7718C117.968 14.8911 118.013 10.9564 116.809 8.0295C116.614 7.55425 116.416 7.12091 116.37 7.06585C116.324 7.01118 116.185 6.75181 116.062 6.49004C115.597 5.50565 114.018 3.64977 113.047 2.94868C112.874 2.82378 112.592 2.61151 112.42 2.47584C110.651 1.08722 107.197 0.250857 104.646 0.593621ZM107.028 5.17405C108.395 5.55153 109.489 6.72308 109.849 8.19269C110.014 8.87104 109.985 13.1199 109.811 13.7424C109.67 14.2463 109.505 14.6298 109.33 14.8588C108.527 15.9115 108.01 16.3176 107.103 16.6077C105.264 17.196 103.079 15.9446 102.495 13.969C102.309 13.3369 102.205 9.27047 102.354 8.45605C102.795 6.0563 104.893 4.58389 107.028 5.17405ZM28.5362 6.37672C27.1903 6.49484 25.0578 7.29688 24.324 7.96086C24.1927 8.07977 23.9881 8.2302 23.8692 8.29485C23.4498 8.52389 22.1912 9.98676 21.8368 10.6571C20.7953 12.6271 20.4804 13.8043 20.4804 15.7243C20.4804 23.7863 29.4804 28.0902 35.1484 22.7388C37.0825 20.9125 37.1601 20.5071 35.6422 20.1435C35.2168 20.0418 34.6074 19.8854 34.2888 19.7968C33.4266 19.5566 33.2781 19.5721 32.8824 19.9452C31.0114 21.7082 28.3658 21.9209 26.3428 20.4711C25.3577 19.7652 24.5283 18.6939 24.2744 17.7997L24.1916 17.5072H30.9496H37.7077L37.9101 17.3065L38.1129 17.1058L38.0774 15.7602C38.0572 14.975 38.0049 14.2348 37.9519 13.9826C37.9022 13.7448 37.815 13.3258 37.7577 13.0512C37.6427 12.4986 37.1134 11.272 36.7681 10.7568C36.6455 10.5741 36.5277 10.3646 36.5066 10.2912C36.4322 10.0318 35.1163 8.59252 34.6804 8.29325C34.5077 8.17514 34.2614 7.98879 34.1323 7.87906C33.0076 6.92419 30.37 6.21631 28.5362 6.37672ZM46.7799 6.4681C46.2397 6.51837 45.3381 6.74502 45.0511 6.90224C44.9536 6.95571 44.8296 6.99961 44.775 6.99961C43.9847 6.99961 41.9873 9.00033 41.2312 10.5498C40.3093 12.4379 40.2833 12.6873 40.3051 19.3918L40.3228 24.7679L40.4985 24.9283C40.7249 25.1346 43.2339 25.1817 43.5172 24.985C43.7699 24.809 43.7699 24.8085 43.8022 18.9704L43.8335 13.2843L44.0257 12.7815C44.1318 12.505 44.3763 12.056 44.5692 11.7839C45.2069 10.8842 45.1523 10.9336 46.0592 10.4333C47.0248 9.90015 48.063 9.94524 49.0042 10.561C49.2528 10.7237 49.4762 10.8566 49.5003 10.8566C49.7317 10.8566 50.6513 12.3143 50.859 13.0093C51.117 13.8741 51.1362 14.3389 51.1366 19.7059C51.1373 24.7376 51.1388 24.7994 51.2649 24.9431C51.4737 25.1809 54.0526 25.1681 54.3156 24.9283L54.4912 24.7679L54.5254 19.1923L54.56 13.6167L54.7534 12.985C55.9533 9.06777 60.3409 9.13918 61.6525 13.0976L61.8248 13.6167L61.8567 19.2429C61.8835 23.876 61.9041 24.8884 61.9753 24.979C62.1325 25.1801 64.9243 25.1406 65.1067 24.9347L65.2433 24.781V19.1939C65.2433 12.8968 65.2509 13.0237 64.775 11.5576C64.365 10.294 63.4012 8.75094 62.7358 8.29205C62.6151 8.20905 62.3939 8.02311 62.2442 7.87946C61.0608 6.74144 58.4036 6.13052 56.6966 6.60417C55.2213 7.01357 54.267 7.58737 53.2555 8.67272L52.7722 9.19146L52.5032 8.85668C51.1795 7.2079 48.9266 6.26739 46.7799 6.4681ZM67.8933 6.44775C67.4694 6.53434 67.5003 5.80652 67.5003 15.8153V24.813L67.6654 24.951C67.8313 25.0895 70.2981 25.1705 70.6005 25.0472C70.894 24.9279 70.8857 25.2068 70.8857 15.7782C70.8857 6.10538 70.9049 6.61414 70.5336 6.46451C70.3816 6.40306 68.1788 6.3891 67.8933 6.44775ZM80.4462 6.53035C79.6788 6.6756 78.5729 7.04269 78.0297 7.33319C77.6092 7.55785 76.9584 7.97961 76.9043 8.06261C76.887 8.08855 76.7458 8.19349 76.5905 8.29485C76.4355 8.3966 76.0436 8.76769 75.7201 9.11963C73.5895 11.436 72.7921 14.1893 73.2717 17.5738C73.6053 19.9273 75.5094 22.7464 77.5309 23.8801C78.3702 24.3505 78.5499 24.4367 79.148 24.655C82.2619 25.7914 85.8641 24.88 88.2512 22.3526C90.24 20.2473 91.242 16.6509 90.6119 13.8828C90.257 12.3202 90.0311 11.7065 89.5122 10.8902C89.35 10.6339 89.1428 10.29 89.052 10.1251C88.8193 9.70185 87.723 8.57137 87.109 8.12087C85.1575 6.68996 82.7024 6.10379 80.4462 6.53035ZM105.418 6.47209C104.703 6.65126 104.008 7.32282 103.744 8.08815L103.58 8.56219V10.8902C103.58 13.1534 103.584 13.2296 103.725 13.6498C104.454 15.8217 107.426 16.012 108.398 13.9491C108.683 13.3465 108.699 13.1578 108.677 10.7226L108.658 8.42932L108.464 7.99717C107.917 6.77694 106.678 6.15646 105.418 6.47209ZM106.532 9.28723L106.746 9.51345V11.2344C106.746 12.7472 106.734 12.9751 106.639 13.1199C106.371 13.5321 106.031 13.5704 105.705 13.2244L105.492 12.9982V11.2556V9.51345L105.705 9.28723C105.859 9.12443 105.975 9.06098 106.119 9.06098C106.264 9.06098 106.38 9.12443 106.532 9.28723ZM10.6551 10.1875C14.4758 11.2293 16.0369 15.8879 13.6765 19.2031C13.2303 19.8295 13.0656 19.9923 12.2704 20.5933C10.2364 22.1299 7.06769 21.6048 5.28582 19.4357C1.93086 15.352 5.71201 8.83911 10.6551 10.1875ZM30.6679 10.1914C32.2895 10.7218 33.5763 11.8913 34.1778 13.3812L34.3934 13.916H29.2889H24.1848L24.2698 13.6601C24.4466 13.1283 24.8675 12.3781 25.1515 12.0872C25.223 12.0138 25.3438 11.8681 25.4198 11.7628C26.3914 10.4152 28.9805 9.63997 30.6679 10.1914ZM83.3298 10.2266C84.4029 10.5565 85.0007 10.9293 85.7571 11.7404C89.5776 15.8396 85.9915 22.6032 80.6843 21.3068C79.7999 21.0909 79.4798 20.9173 78.4623 20.1017C76.9434 18.8838 76.2418 16.4458 76.779 14.2531C77.5177 11.2397 80.5541 9.37342 83.3298 10.2266ZM112.551 14.6741C112.669 14.7986 112.765 14.965 112.765 15.0444C112.765 15.4194 112.095 17.206 111.892 17.3743C111.87 17.3923 111.676 17.6468 111.459 17.9393C111.244 18.2322 110.973 18.5462 110.859 18.6376C110.744 18.7294 110.442 18.9724 110.187 19.1783C109.49 19.7418 108.848 20.0438 107.592 20.4005C106.054 20.8375 103.607 20.3714 102.27 19.387C101.35 18.7094 100.276 17.5311 100.133 17.0415C100.106 16.9502 99.9912 16.6792 99.8782 16.439C99.3356 15.2894 99.4231 14.6809 100.132 14.6809C100.489 14.6809 100.627 14.8245 100.796 15.37C100.871 15.6126 101.027 15.9849 101.144 16.1972C101.259 16.4094 101.355 16.607 101.355 16.6361C101.355 16.8935 102.64 18.174 103.185 18.4597C106.494 20.1954 110.32 18.7993 111.353 15.4789C111.678 14.4363 112.076 14.1693 112.551 14.6741Z" fill="white"/>
</g>
<defs>
<clipPath id="clip0_2_264">
<rect width="117.188" height="25" fill="white" transform="translate(0.600037 0.516846)"/>
</clipPath>
</defs>
</svg>
