<svg width="106" height="26" viewBox="0 0 106 26" fill="none" xmlns="http://www.w3.org/2000/svg">
<g clip-path="url(#clip0_2_256)">
<path d="M96.5879 17.8448C91.9285 17.8448 88.1378 14.0593 88.1378 9.40647V0.96814H105.037V9.40647C105.037 14.0588 101.246 17.8448 96.5879 17.8448ZM89.6739 2.50238V9.40647C89.6739 13.2129 92.7751 16.3106 96.5879 16.3106C100.399 16.3106 103.501 13.2134 103.501 9.40647V2.50238H89.6739Z" fill="white"/>
<path d="M100.429 6.08215H92.7471V7.6164H93.797L93.2652 11.8678H94.8135L95.346 7.6164H97.8297L98.3622 11.8678H99.9105L99.3788 7.6164H100.429V6.08215Z" fill="white"/>
<path d="M9.50866 3.50363C14.0413 3.50363 16.459 5.61577 16.459 8.63312C16.459 11.0475 14.6456 12.8579 12.2284 13.5222V13.5826C16.0057 14.518 17.3654 16.7206 17.3654 19.0445C17.3654 22.3636 14.9478 24.6271 10.4156 24.6271H0.443787V24.0236C2.25716 24.0236 2.25716 24.0236 2.25716 22.0618V6.06837C2.25716 4.10658 2.25716 4.10658 0.443787 4.10658V3.50311H9.50866V3.50363ZM7.69577 13.4614C10.4156 13.4614 11.4725 11.651 11.4725 8.78395C11.4725 6.21873 10.415 4.10658 8.60221 4.10658H7.09148V13.4614H7.69577ZM7.09148 14.0649V24.0236H9.20651C11.6237 24.0236 12.3795 21.6093 12.3795 18.8937C12.3795 16.178 11.0199 14.0654 8.30005 14.0654H7.09148V14.0649Z" fill="white"/>
<path d="M18.5719 17.2338C18.5719 12.1038 22.8025 9.23682 26.5793 9.23682C30.0545 9.23682 33.1968 10.7455 32.2903 15.8755H23.3464C23.3464 19.9494 25.6729 21.458 27.9394 21.458C30.6593 21.458 31.8679 19.9494 32.4722 18.8928H32.7742C32.17 21.9102 30.0545 24.928 26.2777 24.928C21.2918 24.9285 18.5719 21.3077 18.5719 17.2338ZM23.3464 15.272H27.7884C28.302 13.2202 28.725 9.84023 26.4287 9.84023C24.706 9.84023 23.4672 11.4399 23.3464 15.272Z" fill="white"/>
<path d="M45.1617 13.4614C45.1617 12.1036 44.2552 11.651 43.3488 11.651C42.4122 11.651 41.3849 12.1036 40.3274 13.0088V22.0613C40.3274 24.0231 40.3274 24.0231 42.1402 24.0231V24.6266H33.6792V24.0231C35.492 24.0231 35.492 24.0231 35.492 22.0613V12.5562C35.492 11.0475 35.492 11.0475 33.9813 11.0475V10.5949L40.1758 9.23706H40.4175L40.3269 12.4053H40.3873C41.5355 10.444 43.7114 9.23706 45.917 9.23706C47.9414 9.23706 49.9965 10.444 49.9965 13.7637V22.0624C49.9965 24.0241 49.9965 24.0241 51.8093 24.0241V24.6276H43.9531V24.0241C45.1617 24.0241 45.1617 24.0241 45.1617 22.0624V13.4614Z" fill="white"/>
<path d="M61.7791 21.4586C64.499 21.4586 65.7075 19.9499 66.3118 18.8933H66.6144C66.0096 21.9107 63.8947 24.9285 60.1173 24.9285C55.1314 24.9285 52.4121 21.3077 52.4121 17.2338C52.4121 12.1038 56.6427 9.23682 60.4195 9.23682C64.1968 9.23682 66.1914 11.0779 66.1914 13.0089C66.1914 14.0645 65.708 15.1211 63.8951 15.1211C62.3844 15.1211 62.0515 14.1858 62.0817 13.5521C62.2334 11.3489 62.0817 9.84023 60.2689 9.84023C58.1539 9.84023 57.1865 12.6469 57.1865 16.147C57.1865 20.1008 59.513 21.4586 61.7791 21.4586Z" fill="white"/>
<path d="M79.0019 13.4613C79.0019 12.1035 78.0954 11.651 77.1888 11.651C76.2521 11.651 75.2248 12.1035 74.1673 13.0088V22.0613C74.1673 24.0231 74.1673 24.0231 75.9807 24.0231V24.6266H67.5196V24.0231C69.3329 24.0231 69.3329 24.0231 69.3329 22.0613V4.71055C69.3329 3.20137 69.3329 3.20137 67.8223 3.20137V2.74876L73.9261 1.39096H74.1678V12.4053H74.2282C75.3764 10.444 77.5514 9.23709 79.7582 9.23709C81.7829 9.23709 83.8372 10.444 83.8372 13.7636V22.0623C83.8372 24.0241 83.8372 24.0241 85.6511 24.0241V24.6276H77.7934V24.0241C79.0019 24.0241 79.0019 24.0241 79.0019 22.0623V13.4613Z" fill="white"/>
</g>
<defs>
<clipPath id="clip0_2_256">
<rect width="104.688" height="25" fill="white" transform="translate(0.443787 0.516846)"/>
</clipPath>
</defs>
</svg>
