<svg width="56" height="26" viewBox="0 0 56 26" fill="none" xmlns="http://www.w3.org/2000/svg">
<g clip-path="url(#clip0_2_245)">
<path fill-rule="evenodd" clip-rule="evenodd" d="M9.81826 11.3644C9.63908 11.2048 9.38885 11.1514 9.1598 11.2237L2.92811 13.1901L11.8325 4.67253C12.1068 4.40968 12.116 3.97405 11.8534 3.6996C11.8406 3.68645 11.8279 3.6737 11.814 3.66171L8.48982 0.691495C8.20599 0.438308 7.77115 0.463433 7.51818 0.747158C7.4892 0.780014 7.46333 0.81519 7.44096 0.852685L0.205567 13.003C0.0758121 13.221 0.118678 13.5008 0.30829 13.6698L1.71821 14.9315C1.89161 15.0861 2.13143 15.1422 2.35541 15.0799L7.40387 13.6728L1.5931 22.8035C1.31273 23.2445 1.89431 23.7223 2.27161 23.3605L11.9789 14.0548C12.1894 13.8518 12.1956 13.5163 11.9924 13.3057C11.9835 13.2964 11.9743 13.2875 11.9646 13.2786L9.81826 11.3644Z" fill="white"/>
<path fill-rule="evenodd" clip-rule="evenodd" d="M55.1379 10.0623L54.1739 9.20266C54.043 9.08585 53.8423 9.09716 53.7254 9.22797C53.6993 9.2576 53.6783 9.29185 53.6646 9.32928L51.6821 14.6773C50.7324 17.2394 49.6067 18.1165 48.9007 18.1165C48.6751 18.1165 48.354 17.9525 48.354 17.4061C48.354 17.2203 48.3867 16.8277 48.6166 16.2073L50.5053 11.1158C50.6432 10.7443 50.5392 10.3263 50.2434 10.0627L49.279 9.20266C49.1481 9.08585 48.9475 9.09716 48.8305 9.22797C48.8044 9.2576 48.7834 9.29185 48.7698 9.32928L46.7876 14.6773C45.8384 17.2394 44.7123 18.1165 44.007 18.1165C43.781 18.1165 43.4599 17.9525 43.4599 17.4061C43.4599 17.2203 43.4931 16.8277 43.7222 16.2073L47.8467 5.0741C47.9846 4.70292 47.8806 4.285 47.5852 4.02092L46.6205 3.16093C46.4899 3.04408 46.2892 3.05577 46.1723 3.18625C46.1459 3.21585 46.1252 3.25052 46.1111 3.28752L41.89 14.6773C41.59 15.4863 41.4497 16.3089 41.4497 16.788C41.4497 18.4083 42.5435 19.3383 43.7218 19.3383C44.6051 19.3383 45.5804 18.7732 46.4638 17.6098C46.7662 18.7132 47.6588 19.3383 48.6163 19.3383C49.1497 19.3383 49.7178 19.13 50.2793 18.712L48.8909 22.455C47.4555 21.775 45.817 21.6582 44.2997 22.1287C44.1146 22.1852 44.1528 22.455 44.3437 22.4737C46.3189 22.6595 47.9441 23.5133 49.1438 25.1176C49.3593 25.4035 49.7657 25.4607 50.0513 25.2453C50.1503 25.171 50.2259 25.0701 50.2687 24.954L55.3986 11.1174C55.5373 10.7455 55.434 10.3267 55.1379 10.0623Z" fill="white"/>
<path fill-rule="evenodd" clip-rule="evenodd" d="M34.448 18.1084C34.0612 18.1084 33.7728 17.7282 33.7728 17.1619C33.7728 16.9726 33.8318 16.5217 34.0635 15.8899C35.3891 12.4319 37.1927 10.555 38.0016 10.555C38.5359 10.555 38.6174 11.1111 38.6174 11.7734C38.6174 14.4726 36.2099 18.1064 34.448 18.1064V18.1084ZM38.7394 8.94131C37.7852 8.94131 36.898 9.48938 36.1048 10.326L38.1299 4.81733C38.2692 4.43871 38.1641 4.01285 37.8659 3.74416L36.8898 2.86746C36.7579 2.7484 36.5549 2.75991 36.4373 2.89326C36.4105 2.92342 36.3897 2.95835 36.3755 2.99645L32.1132 14.602C31.8103 15.4267 31.669 16.2645 31.669 16.7527C31.669 18.3243 32.7695 19.3514 34.2654 19.3514C37.7951 19.3514 40.9801 15.1664 40.9801 11.7909C40.9781 10.1379 40.1822 8.94131 38.7394 8.94131Z" fill="white"/>
<path fill-rule="evenodd" clip-rule="evenodd" d="M25.43 18.1084C25.0427 18.1084 24.7539 17.7282 24.7539 17.1619C24.7539 16.9726 24.813 16.5217 25.045 15.8899C26.3723 12.4319 28.1782 10.555 28.9882 10.555C29.5236 10.555 29.6051 11.1111 29.6051 11.7734C29.6044 14.4726 27.196 18.1064 25.4295 18.1064L25.43 18.1084ZM27.0893 10.326L29.1166 4.81733C29.2561 4.43871 29.1513 4.01285 28.8523 3.74416L27.8753 2.86746C27.7429 2.7484 27.54 2.75991 27.4218 2.89326C27.395 2.92342 27.3742 2.95835 27.3603 2.99645L23.0922 14.602C22.1309 17.2122 20.9935 18.1064 20.2797 18.1064C20.0512 18.1064 19.727 17.9397 19.727 17.3825C19.727 17.1932 19.76 16.7932 19.9925 16.1609L21.9005 10.9729C22.0403 10.5947 21.9351 10.1684 21.6365 9.89938L20.661 9.02306C20.5291 8.90438 20.3258 8.91588 20.208 9.04888C20.1812 9.07944 20.1603 9.11394 20.1461 9.15244L18.1417 14.602C17.1819 17.2127 16.0434 18.1064 15.33 18.1064C15.1014 18.1064 14.7768 17.9397 14.7768 17.3825C14.7768 17.1932 14.8099 16.7932 15.042 16.1609L16.9499 10.9729C17.0894 10.5947 16.9842 10.1689 16.6848 9.89975L15.7101 9.02344C15.5781 8.90481 15.3753 8.91631 15.257 9.04925C15.2302 9.07944 15.2094 9.11475 15.1952 9.15281L13.1916 14.602C12.8886 15.4267 12.7464 16.2645 12.7464 16.7527C12.7464 18.4041 13.8518 19.3514 15.0431 19.3514C15.9363 19.3514 16.9224 18.7756 17.8155 17.5905C18.1212 18.7149 19.0237 19.3514 19.9913 19.3514C20.8872 19.3514 21.878 18.7724 22.7707 17.5802C23.0906 18.6704 24.0321 19.3514 25.2436 19.3514C28.7786 19.3514 31.9693 15.1664 31.9693 11.7909C31.9685 10.1379 31.1715 8.94131 29.7273 8.94131C28.7715 8.94131 27.8832 9.48938 27.0893 10.326Z" fill="white"/>
</g>
<defs>
<clipPath id="clip0_2_245">
<rect width="55.4688" height="25" fill="white" transform="translate(0.131287 0.516846)"/>
</clipPath>
</defs>
</svg>
