<svg width="119" height="26" viewBox="0 0 119 26" fill="none" xmlns="http://www.w3.org/2000/svg">
<g clip-path="url(#clip0_2_270)">
<path d="M17.2224 14.4403C17.1825 14.4877 17.1443 14.5369 17.1019 14.5815L17.1011 14.5908L13.1188 19.0455L13.1121 19.0436C12.8479 19.3412 12.5335 19.5772 12.1872 19.7382C11.8409 19.8992 11.4695 19.9819 11.0944 19.9815H7.17442C7.09672 19.9814 7.01974 19.9984 6.94792 20.0315C6.8761 20.0647 6.81083 20.1134 6.75584 20.1749C6.70085 20.2362 6.65724 20.3092 6.62747 20.3895C6.59771 20.4697 6.58239 20.5558 6.58239 20.6427V24.5578L6.56993 24.5587C6.5487 24.7029 6.49236 24.8377 6.4071 24.9484C6.32185 25.059 6.21097 25.1413 6.08665 25.1861C5.96233 25.2309 5.82938 25.2365 5.70238 25.2024C5.57539 25.1682 5.45927 25.0956 5.36677 24.9925L5.36428 24.9943L1.75231 20.9566L1.75563 20.9501C1.47907 20.6535 1.25903 20.2974 1.10877 19.9032C0.958503 19.509 0.881124 19.0849 0.881287 18.6563V8.55374C0.881287 7.69752 1.18436 6.9221 1.67592 6.34913L1.67426 6.34356L5.76949 1.76352L5.77115 1.76445C6.30262 1.18117 7.01767 0.854683 7.76229 0.855317H11.0944C11.5196 0.855317 11.9214 0.96211 12.2827 1.14877V1.14134C12.5916 1.30199 12.8722 1.51836 13.108 1.78395L13.113 1.78117L17.9738 7.21741L17.9746 13.5943H23.6625V23.5029C23.6641 23.5085 23.6641 23.515 23.6641 23.5215V23.7453C23.6391 24.1475 23.4786 24.524 23.2151 24.799C22.9516 25.0741 22.6047 25.2272 22.2442 25.2274H19.3937C19.1967 25.2272 19.0021 25.1815 18.8217 25.0929C18.6415 25.0043 18.4795 24.875 18.3462 24.713C18.2129 24.5509 18.111 24.3597 18.0471 24.1515C17.9831 23.9432 17.9584 23.7224 17.9746 23.5029V13.5943L17.2224 14.4403ZM11.6906 13.6018C11.7683 13.6019 11.8453 13.5849 11.9171 13.5517C11.989 13.5185 12.0542 13.4699 12.1092 13.4084C12.1642 13.3471 12.2078 13.2741 12.2376 13.1938C12.2674 13.1136 12.2827 13.0275 12.2827 12.9406V7.89439C12.2827 7.80748 12.2674 7.72142 12.2376 7.64114C12.2078 7.56086 12.1642 7.48793 12.1092 7.42652C12.0542 7.36511 11.989 7.31643 11.9171 7.28326C11.8453 7.25008 11.7683 7.23308 11.6906 7.2332V7.23227H7.17359C7.01672 7.23227 6.86626 7.30189 6.75525 7.42586C6.64425 7.54984 6.58178 7.71801 6.58156 7.89345V12.9387C6.58156 13.3047 6.84644 13.6 7.17359 13.6H11.689L11.6906 13.6018Z" fill="white"/>
<path d="M17.978 13.601H23.6658L17.978 7.22589V13.601Z" fill="white"/>
<path d="M31.7284 6.16701H36.9919C39.1425 6.16701 41.0506 6.16701 42.1998 8.01222C42.7005 8.84148 42.9413 10.0227 42.9413 11.0173C42.9413 11.8252 42.7927 12.6136 42.4963 13.2971C41.3662 15.9094 38.9565 15.9716 37.1771 16.0124H35.0091V20.8005H31.7284V6.16701ZM35.0108 8.86194V13.2971H36.977C38.2017 13.2971 39.6855 13.2563 39.6855 10.9969C39.6855 8.86103 38.034 8.86103 37.0882 8.86103L35.0108 8.86194ZM46.8721 11.0981C47.5023 10.4963 48.1882 10.02 49.6704 9.85368V12.6731L48.7254 12.8384C47.3545 13.1076 46.946 13.3361 46.946 14.704V20.7977H44.0922V9.95769H46.8721V11.0981ZM60.8085 15.3652C60.8085 18.1019 59.4003 21.1069 55.6189 21.1069C52.8946 21.1069 50.411 19.3657 50.411 15.3652C50.411 12.049 52.2826 9.41633 55.9901 9.64474C59.9375 9.8936 60.8085 13.3965 60.8085 15.3652ZM53.7656 13.2321C53.4135 13.8543 53.284 14.6019 53.284 15.3494C53.284 17.072 54.0247 18.5875 55.6189 18.5875C57.1575 18.5875 57.9173 17.1964 57.9173 15.4952C57.9173 14.2907 57.6574 13.3566 57.1202 12.7752C56.5273 12.153 55.8597 12.1316 55.4521 12.1735C54.6366 12.2356 54.155 12.5468 53.7665 13.2321H53.7656ZM63.126 8.89724C63.126 8.3586 63.1625 7.63241 63.5329 7.05201C63.8858 6.5134 64.6821 5.95343 66.0172 5.95343C66.5918 5.95343 67.1665 6.05744 67.7219 6.13916V8.52391H67.0361C65.9616 8.52391 65.906 8.77277 65.9243 10.2233H67.8332V12.1716H65.9425V20.7949H63.1069V12.1716H61.5874V10.2233H63.126V8.89724Z" fill="white"/>
<path d="M69.2599 8.61479H72.0757V6.14835H69.2599V8.61479ZM69.2599 20.8031H72.0757V9.96229H69.2599V20.8031Z" fill="white"/>
<path d="M74.9858 6.84488H77.8213V10.2233H79.6936V12.1715H77.803V17.0432C77.7848 17.7062 77.7848 18.2661 78.5448 18.2661L79.5636 18.2244V20.7113C78.9526 20.8153 78.5814 20.8775 78.0632 20.8775C77.0796 20.8775 76.0053 20.8153 75.3936 19.8198C75.0048 19.1781 74.9865 18.4111 74.9865 17.3747V12.1511H73.5775V10.2028H74.9858V6.84488Z" fill="white"/>
<path d="M90.401 6.16724C90.7912 7.7422 91.1793 9.31807 91.6047 10.894C92.3288 13.7124 92.4582 14.1684 92.866 17.0081C93.2548 14.1062 93.3476 13.6094 93.9403 10.6238C94.2187 9.13148 94.5148 7.63912 94.7932 6.16724H98.0365L94.7193 20.8007H91.346C90.9389 19.1849 90.5487 17.5672 90.1226 15.9718C89.4181 13.2769 89.3809 13.1728 88.9914 11.1215C88.6588 12.9249 88.6215 13.0698 87.8798 15.8678L86.6192 20.8007H83.2465L79.9293 6.16724H83.1916C84.5999 13.1106 84.7489 13.8777 85.1371 17.049C85.6187 14.1479 85.7494 13.588 86.4349 10.6859L87.5093 6.16724H90.401Z" fill="white"/>
<path d="M107.618 18.0464C107.284 18.6063 106.95 19.145 106.45 19.6632C105.616 20.5342 104.355 21.1972 102.799 21.1972C99.9264 21.1972 97.9064 19.145 97.9064 15.6003C97.9064 12.9891 99.0553 9.6311 102.873 9.6311C103.448 9.6311 105.115 9.6933 106.357 11.1856C107.618 12.6993 107.692 14.8128 107.729 16.0359H100.816C100.798 17.3824 101.483 18.7308 103.022 18.7308C104.578 18.7308 105.116 17.5904 105.468 16.8234L107.618 18.0464ZM104.782 14.0366C104.726 13.5824 104.652 12.9844 104.244 12.5098C103.892 12.117 103.356 11.9109 102.855 11.9109C102.169 11.9109 101.688 12.2823 101.409 12.6129C101.019 13.0875 100.928 13.5824 100.835 14.0366H104.782Z" fill="white"/>
<path d="M109.381 20.8007H112.235V6.16724H109.381V20.8007Z" fill="white"/>
<path d="M114.787 20.8007H117.641V6.16724H114.787V20.8007Z" fill="white"/>
</g>
<defs>
<clipPath id="clip0_2_270">
<rect width="117.188" height="25" fill="white" transform="translate(0.881287 0.516846)"/>
</clipPath>
</defs>
</svg>
