<svg width="93" height="26" viewBox="0 0 93 26" fill="none" xmlns="http://www.w3.org/2000/svg">
<g clip-path="url(#clip0_2_242)">
<path d="M22.5779 6.76822C22.5777 6.76778 22.5773 6.76697 22.5769 6.76614C22.5758 6.7647 22.5746 6.76284 22.5736 6.7614C22.5479 6.71853 22.5206 6.67711 22.4913 6.63671C22.4837 6.6262 22.4756 6.61631 22.4676 6.6058C22.4444 6.5755 22.4206 6.54603 22.3954 6.51738C22.3812 6.5011 22.366 6.48523 22.3514 6.46957C22.3309 6.44855 22.3103 6.42773 22.2887 6.40733C22.2689 6.38878 22.2484 6.37044 22.228 6.35313C22.209 6.33726 22.1902 6.3218 22.1707 6.30655C22.1472 6.288 22.1228 6.27048 22.0982 6.25317C22.0796 6.2404 22.0612 6.22783 22.042 6.21546C22.0157 6.19897 21.9892 6.18331 21.9622 6.16826C21.943 6.15734 21.9235 6.14683 21.9037 6.13673C21.8756 6.12251 21.8471 6.10891 21.8181 6.09655C21.7985 6.08789 21.7789 6.07923 21.7586 6.0712C21.7276 6.05903 21.696 6.04812 21.6643 6.0376C21.6462 6.03183 21.6282 6.02585 21.6098 6.0207C21.573 6.00998 21.5356 6.0005 21.498 5.99247C21.4848 5.98979 21.4717 5.98649 21.4585 5.98401C21.412 5.97495 21.3647 5.96815 21.3178 5.963C21.3128 5.96258 21.3084 5.96176 21.3037 5.96135C20.9678 5.92775 20.6188 5.99164 20.304 6.1695L11.5277 11.1337L5.2513 7.58328L11.5329 4.02985L15.7209 6.39723C16.5169 6.84672 17.5346 6.58003 17.9943 5.80039C18.4539 5.02053 18.1811 4.02305 17.3852 3.57294L12.3654 0.735252C11.8505 0.444044 11.216 0.444044 10.7012 0.735252L1.13062 6.14868C0.868342 6.28738 0.639749 6.49492 0.479775 6.76614C0.0199004 7.54622 0.292518 8.54328 1.08846 8.99316L10.696 14.4282C10.6975 14.4291 10.6987 14.4293 10.6999 14.4301C10.7503 14.4583 10.8027 14.4825 10.8555 14.5051C10.8702 14.5115 10.8843 14.5197 10.899 14.5255C10.9308 14.5383 10.9639 14.5472 10.9963 14.5577C11.1702 14.6152 11.3487 14.6469 11.5265 14.6469C11.5269 14.6469 11.5275 14.6469 11.5281 14.6469C11.5283 14.6469 11.5289 14.6469 11.5296 14.6469C11.7113 14.6469 11.894 14.6142 12.071 14.554C12.0994 14.5443 12.1285 14.537 12.1564 14.5257C12.1732 14.5192 12.1893 14.5097 12.206 14.5024C12.2569 14.4804 12.3073 14.4573 12.3557 14.4301C12.3571 14.4293 12.3586 14.4291 12.36 14.4282L19.4743 10.4045V17.5112L11.5302 22.0042L3.58708 17.5112V13.0177C3.58708 12.1173 2.84177 11.3875 1.92306 11.3875C1.00393 11.3875 0.258828 12.1173 0.258828 13.0177V18.4524C0.258828 19.0348 0.575676 19.5727 1.09073 19.8639L10.6983 25.2988C10.9554 25.4441 11.2429 25.5168 11.5302 25.5168C11.8175 25.5168 12.105 25.4441 12.3623 25.2988L21.9702 19.8639C22.4853 19.5727 22.8022 19.0348 22.8022 18.4524V7.58328C22.8022 7.2861 22.7199 7.00828 22.5779 6.76822Z" fill="white"/>
<path fill-rule="evenodd" clip-rule="evenodd" d="M31.4327 15.8908C31.988 16.2506 32.5519 16.5176 33.1245 16.6917C33.6972 16.8658 34.2611 16.9529 34.8164 16.9529C35.3717 16.9529 35.8199 16.8252 36.1612 16.5698C36.5025 16.3144 36.6731 15.9836 36.6731 15.5774C36.6731 15.2408 36.5372 14.9767 36.2653 14.7852C35.9934 14.5937 35.6522 14.4224 35.2415 14.2716C34.8308 14.1207 34.3884 13.9669 33.9141 13.8102C33.4398 13.6535 32.9973 13.4446 32.5867 13.1834C32.176 12.9222 31.8347 12.5769 31.5629 12.1474C31.291 11.7179 31.1551 11.155 31.1551 10.4586C31.1551 9.92463 31.265 9.43713 31.4848 8.99607C31.7046 8.555 32.0111 8.17482 32.4044 7.85563C32.7978 7.53644 33.2692 7.28975 33.8186 7.11569C34.3681 6.94157 34.9725 6.8545 35.6319 6.8545C36.1872 6.8545 36.7396 6.90675 37.2891 7.01119C37.8386 7.11569 38.3909 7.27819 38.9462 7.49869V10.0407C38.4256 9.73894 37.9051 9.5155 37.3845 9.37038C36.8639 9.22532 36.3492 9.15275 35.8402 9.15275C35.308 9.15275 34.8771 9.26882 34.5474 9.50094C34.2178 9.73313 34.0529 10.0407 34.0529 10.4238C34.0529 10.7488 34.1888 11.0041 34.4607 11.1898C34.7325 11.3756 35.0709 11.5409 35.4758 11.6861C35.8806 11.8311 36.3231 11.982 36.8032 12.1388C37.2833 12.2954 37.7258 12.5073 38.1306 12.7743C38.5355 13.0412 38.8739 13.3923 39.1458 13.8276C39.4176 14.2629 39.5535 14.8345 39.5535 15.5426C39.5535 16.0881 39.4408 16.5901 39.2151 17.0486C38.9896 17.5071 38.6772 17.8988 38.2781 18.2238C37.8791 18.5489 37.4019 18.8013 36.8466 18.9813C36.2913 19.1611 35.684 19.2511 35.0246 19.2511C33.81 19.2511 32.6127 18.9899 31.4327 18.4676V15.8908ZM40.3968 6.5237H43.2252V10.9461C43.9771 10.4005 44.7696 10.1278 45.6024 10.1278C46.0536 10.1278 46.4701 10.2061 46.8518 10.3628C47.2335 10.5195 47.5632 10.7401 47.8408 11.0244C48.1185 11.3088 48.3354 11.6483 48.4916 12.0429C48.6477 12.4376 48.7258 12.8671 48.7258 13.3314V19.0422H45.8974V13.8537C45.8974 13.4939 45.7846 13.1979 45.5591 12.9658C45.3335 12.7336 45.0472 12.6175 44.7001 12.6175C44.1796 12.6175 43.6879 12.8497 43.2252 13.3139V19.0422H40.3968V6.5237ZM49.8815 10.3367H52.7098V19.0422H49.8815V10.3367ZM49.7427 8.02107C49.7427 7.55675 49.8873 7.18244 50.1765 6.89807C50.4657 6.61365 50.8416 6.47147 51.3044 6.47147C51.7439 6.47147 52.1112 6.61365 52.4062 6.89807C52.7012 7.18244 52.8487 7.55675 52.8487 8.02107C52.8487 8.46213 52.7012 8.82775 52.4062 9.11794C52.1112 9.40813 51.7439 9.55319 51.3044 9.55319C50.8416 9.55319 50.4657 9.40813 50.1765 9.11794C49.8873 8.82775 49.7427 8.46213 49.7427 8.02107ZM59.852 14.6894C59.852 14.051 59.6929 13.5374 59.3748 13.1486C59.0567 12.7597 58.6431 12.5653 58.1341 12.5653C57.6251 12.5653 57.1682 12.7684 56.7633 13.1747V16.2042C57.1682 16.6104 57.6251 16.8136 58.1341 16.8136C58.6431 16.8136 59.0567 16.6163 59.3748 16.2216C59.6929 15.8269 59.852 15.3163 59.852 14.6894ZM53.9349 10.3367H56.7633V10.8068C57.4227 10.3541 58.0994 10.1278 58.7935 10.1278C59.3719 10.1278 59.904 10.2409 60.3899 10.4673C60.8758 10.6936 61.2922 11.007 61.6393 11.4074C61.9863 11.8079 62.2552 12.2867 62.4461 12.8439C62.6373 13.401 62.7326 14.0162 62.7326 14.6894C62.7326 15.3626 62.6373 15.9778 62.4461 16.535C62.2552 17.0921 61.9863 17.5709 61.6393 17.9714C61.2922 18.3718 60.8758 18.6853 60.3899 18.9116C59.904 19.1379 59.3719 19.2511 58.7935 19.2511C58.0994 19.2511 57.4227 19.0248 56.7633 18.5721V22.8551H53.9349V10.3367ZM66.5086 16.8136H68.3648C68.8045 16.8136 69.1658 16.683 69.4492 16.4218C69.7326 16.1606 69.8747 15.8269 69.8747 15.4207C69.8747 15.0144 69.7326 14.6808 69.4492 14.4196C69.1658 14.1584 68.8045 14.0278 68.3648 14.0278H66.5086V16.8136ZM66.5086 11.8689H68.1218C68.5267 11.8689 68.8625 11.747 69.1284 11.5033C69.3944 11.2595 69.5277 10.9519 69.5277 10.5804C69.5277 10.1974 69.3944 9.88694 69.1284 9.64894C68.8625 9.411 68.5267 9.29207 68.1218 9.29207H66.5086V11.8689ZM63.7492 7.06344H68.66C69.192 7.06344 69.6778 7.14469 70.1176 7.30719C70.5573 7.46969 70.9385 7.69607 71.2624 7.98619C71.5863 8.27638 71.838 8.61882 72.0174 9.01344C72.1968 9.40813 72.2865 9.83757 72.2865 10.3019C72.2865 10.8939 72.1476 11.422 71.8698 11.8863C71.5926 12.3506 71.2108 12.693 70.7249 12.9135C71.3497 13.1457 71.8324 13.5084 72.1737 14.0017C72.5151 14.495 72.6857 15.0609 72.6857 15.6993C72.6857 16.1868 72.5929 16.6366 72.4079 17.0486C72.2229 17.4607 71.9657 17.8147 71.6356 18.1107C71.306 18.4067 70.913 18.6359 70.4558 18.7984C69.9986 18.9609 69.4984 19.0422 68.9546 19.0422H63.7492V7.06344ZM73.0258 14.6894C73.0258 14.0162 73.1411 13.401 73.3728 12.8439C73.6039 12.2867 73.9278 11.8079 74.3445 11.4074C74.7612 11.007 75.2552 10.6936 75.8282 10.4673C76.4007 10.2409 77.0285 10.1278 77.7106 10.1278C78.3933 10.1278 79.0211 10.2409 79.5936 10.4673C80.166 10.6936 80.6575 11.007 81.0686 11.4074C81.4791 11.8079 81.7999 12.2867 82.0316 12.8439C82.2627 13.401 82.3785 14.0162 82.3785 14.6894C82.3785 15.3511 82.2627 15.9633 82.0316 16.5263C81.7999 17.0893 81.4791 17.5709 81.0686 17.9714C80.6575 18.3718 80.166 18.6853 79.5936 18.9116C79.0211 19.1379 78.3933 19.2511 77.7106 19.2511C77.0285 19.2511 76.4007 19.1379 75.8282 18.9116C75.2552 18.6853 74.7612 18.3718 74.3445 17.9714C73.9278 17.5709 73.6039 17.0893 73.3728 16.5263C73.1411 15.9633 73.0258 15.3511 73.0258 14.6894ZM75.9235 14.6894C75.9235 15.3511 76.0886 15.8821 76.4181 16.2825C76.7476 16.683 77.1786 16.8832 77.7106 16.8832C78.2313 16.8832 78.6592 16.683 78.995 16.2825C79.3301 15.8821 79.4983 15.3511 79.4983 14.6894C79.4983 14.0278 79.3301 13.4968 78.995 13.0963C78.6592 12.6959 78.2313 12.4956 77.7106 12.4956C77.1786 12.4956 76.7476 12.6959 76.4181 13.0963C76.0886 13.4968 75.9235 14.0278 75.9235 14.6894ZM88.9824 14.6894C88.9824 14.051 88.8235 13.5374 88.5052 13.1486C88.1876 12.7597 87.774 12.5653 87.2651 12.5653C86.7556 12.5653 86.299 12.7684 85.8941 13.1747V16.2042C86.299 16.6104 86.7556 16.8136 87.2651 16.8136C87.774 16.8136 88.1876 16.6163 88.5052 16.2216C88.8235 15.8269 88.9824 15.3163 88.9824 14.6894ZM83.0656 6.5237H85.8941V10.8068C86.5531 10.3541 87.2302 10.1278 87.9241 10.1278C88.5028 10.1278 89.0347 10.2409 89.5206 10.4673C90.0064 10.6936 90.4231 11.007 90.7701 11.4074C91.117 11.8079 91.3861 12.2867 91.5767 12.8439C91.7679 13.401 91.8632 14.0162 91.8632 14.6894C91.8632 15.3626 91.7679 15.9778 91.5767 16.535C91.3861 17.0921 91.117 17.5709 90.7701 17.9714C90.4231 18.3718 90.0064 18.6853 89.5206 18.9116C89.0347 19.1379 88.5028 19.2511 87.9241 19.2511C87.2302 19.2511 86.5531 19.0248 85.8941 18.5721V19.0422H83.0656V6.5237Z" fill="white"/>
</g>
<defs>
<clipPath id="clip0_2_242">
<rect width="92.1875" height="25" fill="white" transform="translate(0.256287 0.516846)"/>
</clipPath>
</defs>
</svg>
